<svg width="40" height="105" viewBox="0 0 40 105" fill="none" xmlns="http://www.w3.org/2000/svg">
<path d="M39.2607 91.2044L39.2607 95.9307L32.9278 100.008L32.9278 100.057L39.2607 100.057L39.2607 103.998L20.3599 103.998L20.3599 100.057L32.3916 100.057L32.3916 100.008L26.4928 96.2052L26.4928 91.5279L32.4916 96.1052L39.2607 91.2044Z" fill="#33BBEF"/>
<path d="M23.2119 88.2743C23.2119 88.6404 23.0863 88.9532 22.8374 89.2107C22.5884 89.4681 22.2734 89.5958 21.8904 89.5958C21.5074 89.5958 21.1903 89.4681 20.9371 89.2107C20.6838 88.9532 20.5562 88.6404 20.5562 88.2743C20.5562 87.8998 20.6838 87.5827 20.9371 87.321C21.1903 87.0593 21.5074 86.9273 21.8904 86.9273C22.2564 86.9273 22.5671 87.0593 22.8246 87.321C23.0821 87.5827 23.2119 87.8998 23.2119 88.2743ZM39.2208 87.2763L39.2208 89.3213L26.4528 89.3213L26.4528 87.2763L39.2208 87.2763Z" fill="black"/>
<path d="M39.206 72.5325L39.206 74.5775L31.9262 74.5775C29.2151 74.5775 27.8596 75.5649 27.8596 77.5439C27.8596 78.5675 28.2447 79.4123 29.0129 80.0826C29.7833 80.7508 30.7536 81.0849 31.9262 81.0849L39.206 81.0849L39.206 83.1299L26.4381 83.1299L26.4381 81.0849L28.5597 81.0849L28.5597 81.0359C26.9466 80.072 26.1401 78.6739 26.1401 76.8459C26.1401 75.4499 26.5913 74.3817 27.4935 73.6411C28.3937 72.9027 29.6981 72.5325 31.4005 72.5325L39.206 72.5325Z" fill="black"/>
<path d="M26.4346 58.6551L39.2026 63.7431L39.2026 65.7498L26.4346 70.5889L26.4346 68.3438L35.7126 65.1029C36.3936 64.8603 36.9873 64.7113 37.4959 64.6539L37.4959 64.6028C36.8554 64.5198 36.2766 64.3879 35.7616 64.2049L26.4346 60.8128L26.4346 58.6551Z" fill="black"/>
<path d="M39.206 47.7658L39.206 49.8108L37.2121 49.8108L37.2121 49.8598C38.7421 50.7493 39.5061 52.0601 39.5061 53.7881C39.5061 55.0606 39.1699 56.0544 38.4953 56.7736C37.8228 57.4929 36.9291 57.8525 35.8161 57.8525C33.4307 57.8525 32.0411 56.4481 31.6517 53.6391L31.1154 49.8108C28.9448 49.8108 27.8596 50.6876 27.8596 52.441C27.8596 53.9796 28.383 55.367 29.4321 56.6055L27.3361 56.6055C26.5381 55.35 26.1401 53.9051 26.1401 52.2665C26.1401 49.2661 27.7276 47.7658 30.9026 47.7658L39.206 47.7658ZM32.7476 49.8108L33.171 52.89C33.3051 53.837 33.5392 54.552 33.8775 55.0351C34.2138 55.5181 34.8096 55.7586 35.6651 55.7586C36.2886 55.7586 36.7993 55.5351 37.193 55.0904C37.5888 54.6456 37.7845 54.0541 37.7845 53.3135C37.7845 52.3006 37.4292 51.4622 36.7184 50.8025C36.0098 50.1407 35.1096 49.8108 34.0201 49.8108L32.7476 49.8108Z" fill="black"/>
<path d="M38.7464 44.6749L36.5503 44.6749C37.3738 43.5599 37.7845 42.3341 37.7845 40.9956C37.7845 39.1996 37.1866 38.3037 35.9906 38.3037C35.6502 38.3037 35.3607 38.3803 35.1224 38.5335C34.8862 38.6867 34.6777 38.8953 34.4947 39.157C34.3116 39.4188 34.1478 39.7273 34.001 40.0806C33.8563 40.4338 33.703 40.8126 33.5456 41.2212C33.3221 41.7851 33.0944 42.2831 32.8667 42.7108C32.639 43.1385 32.3794 43.496 32.0943 43.7833C31.807 44.0706 31.4814 44.2855 31.1154 44.4302C30.7494 44.577 30.3216 44.6494 29.8301 44.6494C29.2321 44.6494 28.7022 44.5132 28.2405 44.2387C27.7787 43.9642 27.3935 43.5982 27.0807 43.1406C26.77 42.6831 26.5338 42.1618 26.3763 41.5766C26.2189 40.9892 26.1401 40.3849 26.1401 39.7614C26.1401 38.657 26.3317 37.6674 26.7126 36.795L28.7831 36.795C28.1681 37.7334 27.8596 38.8144 27.8596 40.0359C27.8596 40.4189 27.9042 40.7637 27.9915 41.0701C28.0787 41.3787 28.2022 41.6425 28.3596 41.8617C28.5171 42.083 28.7065 42.2533 28.9257 42.3746C29.147 42.4937 29.3896 42.5554 29.6556 42.5554C29.9876 42.5554 30.2663 42.4937 30.4919 42.3746C30.7153 42.2533 30.9154 42.0766 31.0899 41.8447C31.2644 41.6106 31.4218 41.3276 31.5644 40.9956C31.7048 40.6636 31.8581 40.2849 32.024 39.8614C32.2411 39.2953 32.4624 38.7889 32.6922 38.3399C32.9199 37.8909 33.1774 37.51 33.4647 37.1929C33.752 36.8779 34.0818 36.6332 34.4563 36.463C34.8309 36.2927 35.2756 36.2076 35.7906 36.2076C36.4226 36.2076 36.9716 36.3481 37.4355 36.6247C37.9016 36.9035 38.2889 37.2759 38.5953 37.7419C38.9039 38.2079 39.1316 38.7442 39.2826 39.3507C39.4316 39.9572 39.5061 40.5934 39.5061 41.2574C39.5061 42.5703 39.2529 43.7109 38.7464 44.6749Z" fill="black"/>
<path d="M39.5061 27.7367C39.5061 29.6242 38.9103 31.1308 37.7164 32.2565C36.5248 33.3822 34.9437 33.9462 32.9731 33.9462C30.8281 33.9462 29.1534 33.3588 27.9468 32.1884C26.7424 31.0159 26.1401 29.4327 26.1401 27.4366C26.1401 25.5342 26.7253 24.0467 27.8979 22.9785C29.0704 21.9123 30.694 21.3782 32.7731 21.3782C34.8096 21.3782 36.4418 21.9528 37.6675 23.104C38.8932 24.2553 39.5061 25.8002 39.5061 27.7367ZM27.8596 27.5856C27.8596 28.9007 28.3064 29.9391 29.2002 30.7031C30.094 31.4692 31.3261 31.8501 32.8987 31.8501C34.4117 31.8501 35.6033 31.4649 36.4758 30.6903C37.3483 29.9179 37.7845 28.8837 37.7845 27.5856C37.7845 26.2641 37.3568 25.249 36.5014 24.5383C35.6459 23.8275 34.4266 23.4722 32.8476 23.4722C31.2516 23.4722 30.0216 23.8275 29.1576 24.5383C28.2937 25.249 27.8596 26.2641 27.8596 27.5856Z" fill="black"/>
<path d="M22.1343 12.2672C21.9109 12.6673 21.7981 13.1206 21.7981 13.627C21.7981 15.057 22.7004 15.772 24.5049 15.772L26.4733 15.772L26.4733 12.7801L28.2204 12.7801L28.2204 15.772L39.2413 15.772L39.2413 17.8043L28.2204 17.8043L28.2204 19.9855L26.4733 19.9855L26.4733 17.8043L24.4049 17.8043C23.0664 17.8043 22.0088 17.417 21.2321 16.6445C20.4532 15.872 20.0659 14.9081 20.0659 13.7526C20.0659 13.1291 20.1404 12.6332 20.2894 12.2672L22.1343 12.2672Z" fill="black"/>
<path d="M39.1332 4.20073C39.3992 4.68378 39.5311 5.32005 39.5311 6.10953C39.5311 8.34606 38.2841 9.46326 35.7922 9.46326L28.2357 9.46326L28.2357 11.6572L26.4886 11.6572L26.4886 9.46326L23.3732 9.46326L22.7114 7.41826L26.4886 7.41826L26.4886 4.20073L28.2357 4.20073L28.2357 7.41826L35.4305 7.41826C36.2859 7.41826 36.8967 7.27355 37.2627 6.98202C37.6287 6.69048 37.8117 6.20955 37.8117 5.53498C37.8117 5.02 37.6691 4.57526 37.3882 4.20073L39.1332 4.20073Z" fill="black"/>
<path d="M11.0044 102.014H14.3442V103.139H5.81299V99.9922C5.81299 99.0586 6.05127 98.3281 6.52783 97.8008C7.00439 97.2695 7.63525 97.0039 8.42041 97.0039C9.24854 97.0039 9.88721 97.2637 10.3364 97.7832C10.7817 98.2988 11.0044 99.0391 11.0044 100.004V102.014ZM10.0845 102.014V99.9922C10.0845 99.3906 9.94385 98.9297 9.6626 98.6094C9.37744 98.2891 8.96729 98.1289 8.43213 98.1289C7.92432 98.1289 7.51807 98.2891 7.21338 98.6094C6.90869 98.9297 6.75049 99.3691 6.73877 99.9277V102.014H10.0845ZM14.3442 91.8945C14.2192 91.957 13.9966 92.0078 13.6763 92.0469C14.1997 92.5508 14.4614 93.1523 14.4614 93.8516C14.4614 94.4766 14.2856 94.9902 13.9341 95.3926C13.5786 95.791 13.1294 95.9902 12.5864 95.9902C11.9263 95.9902 11.4146 95.7402 11.0513 95.2402C10.6841 94.7363 10.5005 94.0293 10.5005 93.1191V92.0645H10.0024C9.62354 92.0645 9.32275 92.1777 9.1001 92.4043C8.87354 92.6309 8.76025 92.9648 8.76025 93.4062C8.76025 93.793 8.85791 94.1172 9.05322 94.3789C9.24854 94.6406 9.48486 94.7715 9.76221 94.7715V95.8613C9.4458 95.8613 9.14111 95.75 8.84814 95.5273C8.55127 95.3008 8.31689 94.9961 8.14502 94.6133C7.97314 94.2266 7.88721 93.8027 7.88721 93.3418C7.88721 92.6113 8.0708 92.0391 8.43799 91.625C8.80127 91.2109 9.30322 90.9961 9.94385 90.9805H12.8618C13.4438 90.9805 13.9067 90.9062 14.2505 90.7578H14.3442V91.8945ZM13.5181 93.6934C13.5181 93.3535 13.4302 93.0312 13.2544 92.7266C13.0786 92.4219 12.8501 92.2012 12.5688 92.0645H11.2681V92.9141C11.2681 94.2422 11.6567 94.9062 12.4341 94.9062C12.7739 94.9062 13.0396 94.793 13.231 94.5664C13.4224 94.3398 13.5181 94.0488 13.5181 93.6934ZM9.73877 85.7949C9.44189 85.7949 9.20752 85.9082 9.03564 86.1348C8.85986 86.3613 8.77197 86.6719 8.77197 87.0664C8.77197 87.4492 8.87158 87.7695 9.0708 88.0273C9.27002 88.2812 9.50439 88.4082 9.77393 88.4082V89.4863C9.22314 89.4863 8.77197 89.2559 8.42041 88.7949C8.06885 88.334 7.89307 87.7578 7.89307 87.0664C7.89307 86.3242 8.05322 85.7461 8.37354 85.332C8.68994 84.918 9.14307 84.7109 9.73291 84.7109C10.0181 84.7109 10.2798 84.7969 10.5181 84.9688C10.7563 85.1406 10.9458 85.3848 11.0864 85.7012C11.3364 84.9629 11.8286 84.5938 12.563 84.5938C13.145 84.5938 13.606 84.8184 13.9458 85.2676C14.2856 85.7168 14.4556 86.3164 14.4556 87.0664C14.4556 87.7969 14.2778 88.4004 13.9224 88.877C13.563 89.3496 13.0786 89.5859 12.4692 89.5859V88.5078C12.7778 88.5078 13.0435 88.3711 13.2661 88.0977C13.4849 87.8203 13.5942 87.4766 13.5942 87.0664C13.5942 86.6523 13.4985 86.3184 13.3071 86.0645C13.1157 85.8105 12.8677 85.6836 12.563 85.6836C12.2075 85.6836 11.9536 85.791 11.8013 86.0059C11.645 86.2168 11.5669 86.5469 11.5669 86.9961V88.0801H10.6528V86.9023C10.6333 86.1641 10.3286 85.7949 9.73877 85.7949ZM11.2446 77.832C12.2095 77.832 12.9868 78.0527 13.5767 78.4941C14.1665 78.9355 14.4614 79.5332 14.4614 80.2871C14.4614 81.0566 14.2173 81.6621 13.729 82.1035H16.7817V83.1875H8.00439V82.1973L8.70752 82.1445C8.16064 81.7031 7.88721 81.0898 7.88721 80.3047C7.88721 79.543 8.17432 78.9414 8.74854 78.5C9.32275 78.0547 10.1216 77.832 11.145 77.832H11.2446ZM11.1216 78.916C10.4067 78.916 9.84229 79.0684 9.42822 79.373C9.01416 79.6777 8.80713 80.0957 8.80713 80.627C8.80713 81.2832 9.09814 81.7754 9.68018 82.1035H12.7095C13.2876 81.7793 13.5767 81.2832 13.5767 80.6152C13.5767 80.0957 13.3716 79.6836 12.9614 79.3789C12.5474 79.0703 11.9341 78.916 11.1216 78.916ZM14.3442 72.5352C14.2192 72.5977 13.9966 72.6484 13.6763 72.6875C14.1997 73.1914 14.4614 73.793 14.4614 74.4922C14.4614 75.1172 14.2856 75.6309 13.9341 76.0332C13.5786 76.4316 13.1294 76.6309 12.5864 76.6309C11.9263 76.6309 11.4146 76.3809 11.0513 75.8809C10.6841 75.377 10.5005 74.6699 10.5005 73.7598V72.7051H10.0024C9.62354 72.7051 9.32275 72.8184 9.1001 73.0449C8.87354 73.2715 8.76025 73.6055 8.76025 74.0469C8.76025 74.4336 8.85791 74.7578 9.05322 75.0195C9.24854 75.2812 9.48486 75.4121 9.76221 75.4121V76.502C9.4458 76.502 9.14111 76.3906 8.84814 76.168C8.55127 75.9414 8.31689 75.6367 8.14502 75.2539C7.97314 74.8672 7.88721 74.4434 7.88721 73.9824C7.88721 73.252 8.0708 72.6797 8.43799 72.2656C8.80127 71.8516 9.30322 71.6367 9.94385 71.6211H12.8618C13.4438 71.6211 13.9067 71.5469 14.2505 71.3984H14.3442V72.5352ZM13.5181 74.334C13.5181 73.9941 13.4302 73.6719 13.2544 73.3672C13.0786 73.0625 12.8501 72.8418 12.5688 72.7051H11.2681V73.5547C11.2681 74.8828 11.6567 75.5469 12.4341 75.5469C12.7739 75.5469 13.0396 75.4336 13.231 75.207C13.4224 74.9805 13.5181 74.6895 13.5181 74.334ZM8.36768 67.1387C8.36768 66.3418 8.63525 65.7051 9.17041 65.2285C9.70166 64.748 10.4028 64.5078 11.2739 64.5078H11.3735C11.9712 64.5078 12.5063 64.623 12.979 64.8535C13.4478 65.084 13.813 65.416 14.0747 65.8496C14.3325 66.2793 14.4614 66.7754 14.4614 67.3379C14.4614 68.1895 14.1782 68.875 13.6118 69.3945C13.0415 69.9141 12.2778 70.1738 11.3208 70.1738H10.7935C9.46143 70.1738 8.40283 69.9277 7.61768 69.4355C6.83252 68.9395 6.354 68.209 6.18213 67.2441C6.08447 66.6973 5.96533 66.3281 5.82471 66.1367C5.68408 65.9453 5.49072 65.8496 5.24463 65.8496V64.959C5.73291 64.959 6.11377 65.0703 6.38721 65.293C6.66064 65.5117 6.854 65.8633 6.96729 66.3477L7.14893 67.1562C7.30127 67.8008 7.55908 68.2852 7.92236 68.6094C8.28174 68.9297 8.76221 69.1387 9.36377 69.2363C8.69971 68.6621 8.36768 67.9629 8.36768 67.1387ZM9.2583 67.3496C9.2583 67.8809 9.43799 68.3027 9.79736 68.6152C10.1528 68.9277 10.647 69.084 11.2798 69.084H11.3735C12.0532 69.084 12.5923 68.9277 12.9907 68.6152C13.3853 68.2988 13.5825 67.873 13.5825 67.3379C13.5825 66.7988 13.3833 66.373 12.9849 66.0605C12.5864 65.748 12.0044 65.5918 11.2388 65.5918C10.6411 65.5918 10.1626 65.75 9.80322 66.0664C9.43994 66.3789 9.2583 66.8066 9.2583 67.3496ZM11.1157 63.5762C10.4946 63.5762 9.93604 63.4551 9.43994 63.2129C8.94385 62.9668 8.56104 62.627 8.2915 62.1934C8.02197 61.7559 7.88721 61.2578 7.88721 60.6992C7.88721 59.8359 8.18604 59.1387 8.78369 58.6074C9.38135 58.0723 10.1763 57.8047 11.1685 57.8047H11.2446C11.8618 57.8047 12.4165 57.9238 12.9087 58.1621C13.397 58.3965 13.7778 58.7344 14.0513 59.1758C14.3247 59.6133 14.4614 60.1172 14.4614 60.6875C14.4614 61.5469 14.1626 62.2441 13.5649 62.7793C12.9673 63.3105 12.1763 63.5762 11.1919 63.5762H11.1157ZM11.2446 62.4863C11.9478 62.4863 12.5122 62.3242 12.938 62C13.3638 61.6719 13.5767 61.2344 13.5767 60.6875C13.5767 60.1367 13.3618 59.6992 12.9321 59.375C12.4985 59.0508 11.8931 58.8887 11.1157 58.8887C10.4204 58.8887 9.85791 59.0547 9.42822 59.3867C8.99463 59.7148 8.77783 60.1523 8.77783 60.6992C8.77783 61.2344 8.99072 61.666 9.4165 61.9941C9.84229 62.3223 10.4517 62.4863 11.2446 62.4863ZM8.8833 51.8633V53.9902H14.3442V55.0742H8.8833V57.1602H8.00439L8.00439 51.8633H8.8833ZM11.6431 48.834V49.625H14.3442V50.7148H8.00439V49.625H10.688V48.916L8.00439 46.7832V45.4707L11.0513 47.9785L14.3442 45.2598V46.6367L11.6431 48.834ZM14.3442 40.4141C14.2192 40.4766 13.9966 40.5273 13.6763 40.5664C14.1997 41.0703 14.4614 41.6719 14.4614 42.3711C14.4614 42.9961 14.2856 43.5098 13.9341 43.9121C13.5786 44.3105 13.1294 44.5098 12.5864 44.5098C11.9263 44.5098 11.4146 44.2598 11.0513 43.7598C10.6841 43.2559 10.5005 42.5488 10.5005 41.6387V40.584H10.0024C9.62354 40.584 9.32275 40.6973 9.1001 40.9238C8.87354 41.1504 8.76025 41.4844 8.76025 41.9258C8.76025 42.3125 8.85791 42.6367 9.05322 42.8984C9.24854 43.1602 9.48486 43.291 9.76221 43.291V44.3809C9.4458 44.3809 9.14111 44.2695 8.84814 44.0469C8.55127 43.8203 8.31689 43.5156 8.14502 43.1328C7.97314 42.7461 7.88721 42.3223 7.88721 41.8613C7.88721 41.1309 8.0708 40.5586 8.43799 40.1445C8.80127 39.7305 9.30322 39.5156 9.94385 39.5H12.8618C13.4438 39.5 13.9067 39.4258 14.2505 39.2773H14.3442V40.4141ZM13.5181 42.2129C13.5181 41.873 13.4302 41.5508 13.2544 41.2461C13.0786 40.9414 12.8501 40.7207 12.5688 40.584H11.2681V41.4336C11.2681 42.7617 11.6567 43.4258 12.4341 43.4258C12.7739 43.4258 13.0396 43.3125 13.231 43.0859C13.4224 42.8594 13.5181 42.5684 13.5181 42.2129ZM13.5767 32.2812C13.5767 31.8945 13.4595 31.5566 13.2251 31.2676C12.9907 30.9785 12.6978 30.8184 12.3462 30.7871V29.7617C12.7095 29.7812 13.0552 29.9062 13.3833 30.1367C13.7114 30.3672 13.9731 30.6758 14.1685 31.0625C14.3638 31.4453 14.4614 31.8516 14.4614 32.2812C14.4614 33.1445 14.1743 33.832 13.6001 34.3438C13.022 34.8516 12.2329 35.1055 11.2329 35.1055H11.0513C10.4341 35.1055 9.88525 34.9922 9.40479 34.7656C8.92432 34.5391 8.55127 34.2148 8.28564 33.793C8.02002 33.3672 7.88721 32.8652 7.88721 32.2871C7.88721 31.5762 8.1001 30.9863 8.52588 30.5176C8.95166 30.0449 9.50439 29.793 10.1841 29.7617V30.7871C9.77393 30.8184 9.43799 30.9746 9.17627 31.2559C8.91064 31.5332 8.77783 31.877 8.77783 32.2871C8.77783 32.8379 8.97705 33.2656 9.37549 33.5703C9.77002 33.8711 10.3423 34.0215 11.0923 34.0215H11.2974C12.0278 34.0215 12.5903 33.8711 12.9849 33.5703C13.3794 33.2695 13.5767 32.8398 13.5767 32.2812ZM14.3442 24.6289C14.2192 24.6914 13.9966 24.7422 13.6763 24.7812C14.1997 25.2852 14.4614 25.8867 14.4614 26.5859C14.4614 27.2109 14.2856 27.7246 13.9341 28.127C13.5786 28.5254 13.1294 28.7246 12.5864 28.7246C11.9263 28.7246 11.4146 28.4746 11.0513 27.9746C10.6841 27.4707 10.5005 26.7637 10.5005 25.8535V24.7988H10.0024C9.62354 24.7988 9.32275 24.9121 9.1001 25.1387C8.87354 25.3652 8.76025 25.6992 8.76025 26.1406C8.76025 26.5273 8.85791 26.8516 9.05322 27.1133C9.24854 27.375 9.48486 27.5059 9.76221 27.5059V28.5957C9.4458 28.5957 9.14111 28.4844 8.84814 28.2617C8.55127 28.0352 8.31689 27.7305 8.14502 27.3477C7.97314 26.9609 7.88721 26.5371 7.88721 26.0762C7.88721 25.3457 8.0708 24.7734 8.43799 24.3594C8.80127 23.9453 9.30322 23.7305 9.94385 23.7148H12.8618C13.4438 23.7148 13.9067 23.6406 14.2505 23.4922H14.3442V24.6289ZM13.5181 26.4277C13.5181 26.0879 13.4302 25.7656 13.2544 25.4609C13.0786 25.1562 12.8501 24.9355 12.5688 24.7988H11.2681V25.6484C11.2681 26.9766 11.6567 27.6406 12.4341 27.6406C12.7739 27.6406 13.0396 27.5273 13.231 27.3008C13.4224 27.0742 13.5181 26.7832 13.5181 26.4277ZM8.00439 17.9141V16.8301H14.3442V17.9141H9.72119L14.3442 20.8379V21.9219H8.00439V20.8379H12.6333L8.00439 17.9141ZM5.6958 17.6211C6.16846 17.6211 6.54932 17.7832 6.83838 18.1074C7.12354 18.4277 7.26611 18.8496 7.26611 19.373C7.26611 19.8965 7.12158 20.3203 6.83252 20.6445C6.54346 20.9688 6.16455 21.1309 5.6958 21.1309V20.2461C5.96924 20.2461 6.18408 20.1719 6.34033 20.0234C6.49268 19.875 6.56885 19.6582 6.56885 19.373C6.56885 19.0996 6.49268 18.8867 6.34033 18.7344C6.18799 18.5781 5.97314 18.5 5.6958 18.5V17.6211ZM8.8833 10.3789V12.5059H14.3442V13.5898H8.8833V15.6758H8.00439V10.3789H8.8833ZM14.3442 5.50391C14.2192 5.56641 13.9966 5.61719 13.6763 5.65625C14.1997 6.16016 14.4614 6.76172 14.4614 7.46094C14.4614 8.08594 14.2856 8.59961 13.9341 9.00195C13.5786 9.40039 13.1294 9.59961 12.5864 9.59961C11.9263 9.59961 11.4146 9.34961 11.0513 8.84961C10.6841 8.3457 10.5005 7.63867 10.5005 6.72852V5.67383H10.0024C9.62354 5.67383 9.32275 5.78711 9.1001 6.01367C8.87354 6.24023 8.76025 6.57422 8.76025 7.01562C8.76025 7.40234 8.85791 7.72656 9.05322 7.98828C9.24854 8.25 9.48486 8.38086 9.76221 8.38086L9.76221 9.4707C9.4458 9.4707 9.14111 9.35938 8.84814 9.13672C8.55127 8.91016 8.31689 8.60547 8.14502 8.22266C7.97314 7.83594 7.88721 7.41211 7.88721 6.95117C7.88721 6.2207 8.0708 5.64844 8.43799 5.23438C8.80127 4.82031 9.30322 4.60547 9.94385 4.58984H12.8618C13.4438 4.58984 13.9067 4.51562 14.2505 4.36719H14.3442V5.50391ZM13.5181 7.30273C13.5181 6.96289 13.4302 6.64062 13.2544 6.33594C13.0786 6.03125 12.8501 5.81055 12.5688 5.67383H11.2681V6.52344C11.2681 7.85156 11.6567 8.51562 12.4341 8.51562C12.7739 8.51562 13.0396 8.40234 13.231 8.17578C13.4224 7.94922 13.5181 7.6582 13.5181 7.30273Z" fill="#454545"/>
</svg>
