<svg width="20" height="20" viewBox="0 0 20 20" fill="none" xmlns="http://www.w3.org/2000/svg">
<path d="M16.8933 20H15.4181C15.1048 20 14.8508 19.746 14.8508 19.4327C14.8508 19.1194 15.1048 18.8654 15.4181 18.8654H16.8933C17.9808 18.8654 18.8656 17.9806 18.8656 16.8931V3.10687C18.8656 2.01941 17.9808 1.13461 16.8933 1.13461H8.37394C8.06062 1.13461 7.80664 0.880585 7.80664 0.567304C7.80664 0.254023 8.06062 0 8.37394 0H16.8934C18.6065 0 20.0002 1.39371 20.0002 3.10687V16.8932C20.0002 18.6063 18.6065 20 16.8933 20Z" fill="#102EDB"/>
<path d="M11.3162 20.001H3.10687C1.39371 20.001 0 18.6072 0 16.8941V3.10785C0 1.39469 1.39371 0.000976562 3.10687 0.000976562H4.38359C4.69691 0.000976562 4.95089 0.255 4.95089 0.568281C4.95089 0.881562 4.69691 1.13558 4.38359 1.13558H3.10687C2.01941 1.13558 1.13461 2.02035 1.13461 3.10785V16.8942C1.13461 17.9816 2.01937 18.8664 3.10687 18.8664H11.3162C11.6294 18.8664 11.8835 19.1204 11.8835 19.4337C11.8835 19.747 11.6294 20.001 11.3162 20.001Z" fill="#102EDB"/>
<rect x="4.5" y="6.5" width="11" height="8" rx="1.5" fill="#CEE8FA" stroke="#102EDB"/>
<path d="M15.3123 7.89043C15.528 7.71793 15.5629 7.40328 15.3904 7.18765C15.2179 6.97202 14.9033 6.93706 14.6877 7.10957L15.3123 7.89043ZM10 11.5L9.68765 11.8904C9.87026 12.0365 10.1297 12.0365 10.3123 11.8904L10 11.5ZM5.31235 7.10957C5.09672 6.93706 4.78207 6.97202 4.60957 7.18765C4.43706 7.40328 4.47202 7.71793 4.68765 7.89043L5.31235 7.10957ZM14.6877 7.10957L9.68765 11.1096L10.3123 11.8904L15.3123 7.89043L14.6877 7.10957ZM10.3123 11.1096L5.31235 7.10957L4.68765 7.89043L9.68765 11.8904L10.3123 11.1096Z" fill="#102EDB"/>
</svg>
