<svg width="20" height="20" viewBox="0 0 20 20" fill="none" xmlns="http://www.w3.org/2000/svg">
<path d="M16.8933 20H15.4181C15.1048 20 14.8508 19.746 14.8508 19.4327C14.8508 19.1193 15.1048 18.8654 15.4181 18.8654H16.8933C17.9808 18.8654 18.8656 17.9806 18.8656 16.8931V3.10687C18.8656 2.01941 17.9808 1.13461 16.8933 1.13461H8.37394C8.06062 1.13461 7.80664 0.880623 7.80664 0.567304C7.80664 0.253984 8.06062 0 8.37394 0H16.8934C18.6065 0 20.0002 1.39371 20.0002 3.10687V16.8931C20.0002 18.6063 18.6065 20 16.8933 20Z" fill="#102EDB"/>
<path d="M11.3162 20H3.10687C1.39371 20 0 18.6063 0 16.8931V3.10687C0 1.39371 1.39371 0 3.10687 0H4.38359C4.69691 0 4.95089 0.253984 4.95089 0.567304C4.95089 0.880623 4.69691 1.13461 4.38359 1.13461H3.10687C2.01941 1.13461 1.13461 2.01937 1.13461 3.10687V16.8931C1.13461 17.9806 2.01937 18.8654 3.10687 18.8654H11.3162C11.6294 18.8654 11.8835 19.1193 11.8835 19.4327C11.8835 19.746 11.6294 20 11.3162 20Z" fill="#102EDB"/>
<path d="M10.4915 4.50117L10.5013 4.50136L10.5112 4.50117C13.7445 4.43741 16.4206 6.99834 16.5005 10.2298C16.4206 13.4613 13.7445 16.0222 10.5112 15.9585L10.5112 15.9584L10.5003 15.9584C9.73832 15.9599 8.98255 15.8211 8.27083 15.5489L8.03838 15.46L7.82731 15.5918L6.6684 16.3158V14.866V14.6339L6.49113 14.4841C5.23905 13.426 4.51242 11.8733 4.50199 10.2342C4.5796 7.00067 7.2567 4.43739 10.4915 4.50117ZM6.3178 16.5348C6.31791 16.5347 6.31802 16.5347 6.31813 16.5346L6.31783 16.5348L6.3178 16.5348Z" fill="#CEE8FA" stroke="#102EDB"/>
<path d="M10.4132 10.1547L10.1648 9.97226L10.2722 9.88019L11.5855 10.8454L11.835 11.0288L11.728 11.1205L10.4132 10.1547Z" fill="#CEE8FA" stroke="#102EDB" stroke-width="1.5"/>
</svg>
