<svg width="20" height="20" viewBox="0 0 20 20" fill="none" xmlns="http://www.w3.org/2000/svg">
<mask id="path-1-inside-1" fill="white">
<path fill-rule="evenodd" clip-rule="evenodd" d="M10 17.2597C10 17.2597 15 10.887 15 8.2261C15 5.56525 12.7614 3.4082 10 3.4082C7.23858 3.4082 5 5.56525 5 8.2261C5 10.887 10 17.2597 10 17.2597ZM10 10C11.1046 10 12 9.10457 12 8C12 6.89543 11.1046 6 10 6C8.89543 6 8 6.89543 8 8C8 9.10457 8.89543 10 10 10Z"/>
</mask>
<path fill-rule="evenodd" clip-rule="evenodd" d="M10 17.2597C10 17.2597 15 10.887 15 8.2261C15 5.56525 12.7614 3.4082 10 3.4082C7.23858 3.4082 5 5.56525 5 8.2261C5 10.887 10 17.2597 10 17.2597ZM10 10C11.1046 10 12 9.10457 12 8C12 6.89543 11.1046 6 10 6C8.89543 6 8 6.89543 8 8C8 9.10457 8.89543 10 10 10Z" fill="#CEE8FA"/>
<path d="M10 17.2597L9.21325 17.8769L10 18.8797L10.7867 17.8769L10 17.2597ZM14 8.2261C14 8.64733 13.7803 9.36745 13.3181 10.3256C12.8751 11.2439 12.2751 12.2505 11.6612 13.1962C11.0496 14.1385 10.4363 15.0019 9.97493 15.6309C9.74458 15.9449 9.55294 16.1993 9.4194 16.3746C9.35265 16.4622 9.30047 16.53 9.26529 16.5754C9.2477 16.5982 9.23437 16.6153 9.22559 16.6266C9.2212 16.6322 9.21796 16.6364 9.21589 16.639C9.21485 16.6403 9.21411 16.6413 9.21367 16.6418C9.21345 16.6421 9.21331 16.6423 9.21324 16.6424C9.2132 16.6424 9.21321 16.6424 9.21319 16.6425C9.21321 16.6424 9.21325 16.6424 10 17.2597C10.7867 17.8769 10.7868 17.8768 10.7869 17.8767C10.787 17.8766 10.7871 17.8765 10.7872 17.8763C10.7875 17.876 10.7878 17.8756 10.7881 17.8751C10.7889 17.8742 10.79 17.8728 10.7914 17.871C10.7941 17.8675 10.798 17.8625 10.8031 17.856C10.8132 17.843 10.828 17.824 10.847 17.7994C10.8851 17.7502 10.9403 17.6785 11.0103 17.5867C11.1502 17.403 11.3492 17.1388 11.5876 16.8138C12.0637 16.1648 12.7004 15.2687 13.3388 14.2851C13.9749 13.3051 14.6249 12.2196 15.1194 11.1947C15.5947 10.2096 16 9.13529 16 8.2261H14ZM10 4.4082C12.2444 4.4082 14 6.15218 14 8.2261H16C16 4.97832 13.2784 2.4082 10 2.4082V4.4082ZM6 8.2261C6 6.15218 7.75557 4.4082 10 4.4082V2.4082C6.72158 2.4082 4 4.97832 4 8.2261H6ZM10 17.2597C10.7867 16.6424 10.7868 16.6424 10.7868 16.6425C10.7868 16.6424 10.7868 16.6424 10.7868 16.6424C10.7867 16.6423 10.7865 16.6421 10.7863 16.6418C10.7859 16.6413 10.7851 16.6403 10.7841 16.639C10.782 16.6364 10.7788 16.6322 10.7744 16.6266C10.7656 16.6153 10.7523 16.5982 10.7347 16.5754C10.6995 16.53 10.6474 16.4622 10.5806 16.3746C10.4471 16.1993 10.2554 15.9449 10.0251 15.6309C9.5637 15.0019 8.95037 14.1385 8.33879 13.1962C7.72494 12.2505 7.12492 11.2439 6.68191 10.3256C6.21965 9.36745 6 8.64733 6 8.2261H4C4 9.13529 4.40535 10.2096 4.88059 11.1947C5.37508 12.2196 6.02506 13.3051 6.66121 14.2851C7.29963 15.2687 7.9363 16.1648 8.41243 16.8138C8.65083 17.1388 8.84982 17.403 8.98971 17.5867C9.05968 17.6785 9.11492 17.7502 9.15298 17.7994C9.17202 17.824 9.18676 17.843 9.19691 17.856C9.20198 17.8625 9.2059 17.8675 9.20864 17.871C9.21001 17.8728 9.21108 17.8742 9.21185 17.8751C9.21224 17.8756 9.21255 17.876 9.21278 17.8763C9.2129 17.8765 9.21302 17.8766 9.21307 17.8767C9.21317 17.8768 9.21325 17.8769 10 17.2597ZM11 8C11 8.55228 10.5523 9 10 9V11C11.6569 11 13 9.65685 13 8H11ZM10 7C10.5523 7 11 7.44772 11 8H13C13 6.34315 11.6569 5 10 5V7ZM9 8C9 7.44772 9.44772 7 10 7V5C8.34315 5 7 6.34315 7 8H9ZM10 9C9.44772 9 9 8.55228 9 8H7C7 9.65685 8.34315 11 10 11V9Z" fill="#102EDB" mask="url(#path-1-inside-1)"/>
<path d="M16.8933 20H15.4181C15.1048 20 14.8508 19.746 14.8508 19.4327C14.8508 19.1194 15.1048 18.8654 15.4181 18.8654H16.8933C17.9808 18.8654 18.8656 17.9806 18.8656 16.8931V3.10687C18.8656 2.01941 17.9808 1.13461 16.8933 1.13461H8.37394C8.06062 1.13461 7.80664 0.880585 7.80664 0.567304C7.80664 0.254023 8.06062 0 8.37394 0H16.8934C18.6065 0 20.0002 1.39371 20.0002 3.10687V16.8932C20.0002 18.6063 18.6065 20 16.8933 20Z" fill="#102EDB"/>
<path d="M11.3162 20.001H3.10687C1.39371 20.001 0 18.6072 0 16.8941V3.10785C0 1.39469 1.39371 0.000976562 3.10687 0.000976562H4.38359C4.69691 0.000976562 4.95089 0.255 4.95089 0.568281C4.95089 0.881562 4.69691 1.13558 4.38359 1.13558H3.10687C2.01941 1.13558 1.13461 2.02035 1.13461 3.10785V16.8942C1.13461 17.9816 2.01937 18.8664 3.10687 18.8664H11.3162C11.6294 18.8664 11.8835 19.1204 11.8835 19.4337C11.8835 19.747 11.6294 20.001 11.3162 20.001Z" fill="#102EDB"/>
</svg>
