<svg width="40" height="40" viewBox="0 0 40 40" fill="none" xmlns="http://www.w3.org/2000/svg">
<path d="M18.6318 23.1203C18.7964 22.9253 19.0876 22.9006 19.2826 23.0649C20.3755 23.9865 21.3535 24.5467 22.4777 25.1342L18.6318 23.1203ZM18.6318 23.1203C18.4675 23.3153 18.4922 23.6065 18.6872 23.7711M18.6318 23.1203L18.6872 23.7711M18.6872 23.7711C19.9494 24.8351 21.0479 25.4357 22.3529 26.1103M18.6872 23.7711L22.3529 26.1103M22.3529 26.1103C22.5314 26.2026 22.7493 26.1688 22.8915 26.0266L22.3529 26.1103ZM19.3632 22.9693L19.3632 22.9693C20.4196 23.8602 21.3676 24.4105 22.4543 24.9809L25.2125 22.2228C25.4762 21.9591 25.8275 21.8138 26.2004 21.8138C26.5733 21.8138 26.9247 21.9591 27.1884 22.2228L31.7157 26.7502L31.7157 26.7502L31.6273 26.8386C31.8677 27.0788 31.9999 27.3983 31.9999 27.7381C31.9999 28.0779 31.8677 28.3972 31.6273 28.6376L30.4104 29.8545C28.9994 31.2655 27.0805 31.9988 24.8765 31.9988L19.3632 22.9693ZM19.3632 22.9693C19.1154 22.7605 18.7453 22.792 18.5363 23.0397L18.5362 23.0397M19.3632 22.9693L18.5362 23.0397M13.2491 8.28424L17.7769 12.8118L17.7769 12.8119L17.6885 12.9003C17.9289 13.1404 18.0611 13.46 18.0611 13.7998C18.0611 14.1396 17.9289 14.4591 17.6885 14.6993L13.2491 8.28424ZM13.2491 8.28424C13.2491 8.28423 13.2491 8.28421 13.2491 8.2842L13.2491 8.28424ZM18.5362 23.0397C18.3275 23.2875 18.3589 23.6576 18.6066 23.8666L18.6067 23.8666M18.5362 23.0397L18.6067 23.8666M18.6067 23.8666C19.8798 24.9399 20.9884 25.5457 22.2955 26.2213L22.2955 26.2214M18.6067 23.8666L22.2955 26.2214M22.2955 26.2214C22.5224 26.3386 22.7991 26.2957 22.9798 26.115L24.4104 24.6847L29.233 29.5071C27.6576 30.7983 25.4506 31.2479 22.9334 30.7531C20.039 30.1839 16.9653 28.3989 14.2829 25.7166C11.6006 23.0344 9.81526 19.9605 9.24603 17.0662C8.75119 14.5489 9.20086 12.342 10.4918 10.7668M22.2955 26.2214L10.4918 10.7668M10.4918 10.7668L15.3151 15.5897L13.8841 17.0205L13.8841 17.0205C13.7034 17.2012 13.6605 17.4782 13.778 17.7051C14.7008 19.4895 15.4499 20.8067 17.3215 22.6784L17.3215 22.6785C17.5508 22.9074 17.9223 22.9075 18.1514 22.6784C18.3807 22.4492 18.3808 22.0776 18.1514 21.8485L10.4918 10.7668ZM22.7071 31.9046C23.453 32.0513 24.1782 32.124 24.8765 32.1238L13.1607 8.37259C12.9205 8.1322 12.6009 7.99976 12.2611 7.99976C11.9214 7.99976 11.6018 8.1322 11.3616 8.37235L10.1444 9.58951C8.29209 11.4418 7.60751 14.169 8.21695 17.2684C8.8271 20.3711 10.7179 23.6348 13.5414 26.4582C16.3646 29.2813 19.6284 31.172 22.7312 31.7819L22.7071 31.9046C22.7071 31.9046 22.7071 31.9046 22.7071 31.9046ZM15.0185 17.5463L17.7769 14.7877L18.1514 21.8484C16.5247 20.2218 15.8289 19.0901 15.0185 17.5463ZM12.4189 9.11374L12.4191 9.1139L16.9472 13.6418C16.9894 13.6841 17.0126 13.7398 17.0126 13.7998C17.0126 13.8598 16.9894 13.9155 16.9472 13.9577L16.1451 14.7598L11.3011 9.91598L12.1032 9.1139C12.1454 9.07168 12.2011 9.04851 12.2611 9.04851C12.3214 9.04851 12.3769 9.07158 12.4189 9.11374ZM30.886 27.896L30.0837 28.6981L25.2404 23.8548L26.0425 23.0527L26.0426 23.0525C26.0846 23.0104 26.1404 22.9873 26.2004 22.9873C26.2603 22.9873 26.316 23.0103 26.3584 23.0527L26.4468 22.9643L26.3584 23.0527L30.8859 27.5798C30.973 27.6671 30.9729 27.8091 30.886 27.896C30.886 27.896 30.886 27.896 30.886 27.896Z" fill="#102EDB" stroke="#102EDB" stroke-width="0.25"/>
<path d="M33.7866 39.9983H30.8361C30.2095 39.9983 29.7015 39.4903 29.7015 38.8638C29.7015 38.2372 30.2095 37.7292 30.8361 37.7292H33.7866C35.9616 37.7292 37.7312 35.9597 37.7312 33.7848V6.21349C37.7312 4.03866 35.9616 2.26912 33.7866 2.26912H16.7479C16.1212 2.26912 15.6133 1.7611 15.6133 1.13456C15.6133 0.508026 16.1212 0 16.7479 0H33.7867C37.2129 0 40.0004 2.78731 40.0004 6.21349V33.785C40.0004 37.211 37.213 39.9983 33.7866 39.9983Z" fill="#102EDB"/>
<path d="M22.6322 40.0003H6.21372C2.78741 40.0003 0 37.213 0 33.7868V6.21544C0 2.78926 2.78741 0.00195312 6.21372 0.00195312H8.76715C9.39379 0.00195312 9.90176 0.509979 9.90176 1.13652C9.90176 1.76305 9.39379 2.27108 8.76715 2.27108H6.21372C4.03881 2.27108 2.26921 4.04053 2.26921 6.21544V33.7869C2.26921 35.9618 4.03873 37.7313 6.21372 37.7313H22.6322C23.2588 37.7313 23.7669 38.2393 23.7669 38.8659C23.7669 39.4924 23.2588 40.0003 22.6322 40.0003Z" fill="#102EDB"/>
</svg>
