<svg width="20" height="20" viewBox="0 0 20 20" fill="none" xmlns="http://www.w3.org/2000/svg">
<path d="M16.8938 19.9998H15.4186C15.1053 19.9998 14.8513 19.7458 14.8513 19.4325C14.8513 19.1191 15.1053 18.8651 15.4186 18.8651H16.8938C17.9813 18.8651 18.8661 17.9804 18.8661 16.8929V3.10663C18.8661 2.01917 17.9813 1.13437 16.8938 1.13437H8.37443C8.06111 1.13437 7.80713 0.880381 7.80713 0.567061C7.80713 0.25374 8.06111 -0.000244141 8.37443 -0.000244141H16.8938C18.607 -0.000244141 20.0007 1.39347 20.0007 3.10663V16.8929C20.0007 18.606 18.607 19.9998 16.8938 19.9998Z" fill="#102EDB"/>
<path d="M11.3166 19.9998H3.10736C1.3942 19.9998 0.000488281 18.606 0.000488281 16.8929V3.10663C0.000488281 1.39347 1.3942 -0.000244141 3.10736 -0.000244141H4.38408C4.6974 -0.000244141 4.95139 0.25374 4.95139 0.567061C4.95139 0.880381 4.6974 1.13437 4.38408 1.13437H3.10736C2.0199 1.13437 1.1351 2.01913 1.1351 3.10663V16.8929C1.1351 17.9803 2.01986 18.8651 3.10736 18.8651H11.3166C11.6299 18.8651 11.8839 19.1191 11.8839 19.4325C11.8839 19.7458 11.6299 19.9998 11.3166 19.9998Z" fill="#102EDB"/>
<path d="M15.5119 4.71447L3.94591 9.2217C3.57119 9.36771 3.594 9.90529 3.97966 10.019L6.62158 10.7991L7.44275 13.8739C7.55728 14.2375 8.01794 14.3476 8.28462 14.0753L9.91052 12.5237L13.3587 15.2058C13.7236 15.4736 14.2432 15.2745 14.3358 14.8316L16.3105 5.3906C16.4072 4.9281 15.9522 4.54287 15.5119 4.71447Z" fill="#CEE8FA"/>
<path d="M13.7254 15.8948H13.7253C13.4721 15.8948 13.2293 15.8149 13.0234 15.6637C13.0191 15.6606 13.015 15.6575 13.0108 15.6542L9.94875 13.2724L8.68235 14.481C8.47981 14.6837 8.21176 14.7951 7.92625 14.7951C7.455 14.7951 7.0434 14.4937 6.90207 14.045C6.89957 14.037 6.89719 14.029 6.89504 14.0209L6.15606 11.2537L3.81942 10.5637C3.4075 10.4422 3.12946 10.0863 3.11129 9.65714C3.09309 9.22792 3.34004 8.84976 3.74039 8.69374L15.3064 4.18651C15.4432 4.13319 15.5857 4.1062 15.7302 4.1062C16.0804 4.1062 16.4091 4.26362 16.6322 4.53808C16.8529 4.80976 16.9382 5.16308 16.8662 5.50737L14.8914 14.9484C14.7768 15.4967 14.2864 15.8948 13.7254 15.8948ZM13.6982 14.7515C13.7073 14.7575 13.7157 14.7601 13.7254 14.7601C13.7301 14.7601 13.7719 14.759 13.7809 14.7161L15.7556 5.27507C15.7578 5.26444 15.757 5.26019 15.7516 5.25351C15.7457 5.24624 15.7364 5.24073 15.7302 5.24073C15.7273 5.24073 15.7231 5.24175 15.7184 5.24362L4.54922 9.59616L6.78254 10.2556C6.97215 10.3116 7.11895 10.4623 7.17 10.6533L7.95793 13.6038L9.51918 12.1139C9.7225 11.9198 10.0373 11.9039 10.2591 12.0765L13.6982 14.7515Z" fill="#102EDB"/>
<path d="M8.5818 13.3606C8.59961 13.4182 9.24957 12.6057 9.25648 12.5457L8.96496 11.1185C8.92656 10.9305 8.99469 10.7366 9.14223 10.614L14.4859 6.17358C14.6145 6.05979 14.4651 5.85913 14.3193 5.94948L8.03543 9.78214C7.88644 9.87304 7.80957 10.0468 7.8425 10.2181L8.5818 13.3606Z" fill="#102EDB"/>
</svg>
