<svg width="20" height="21" viewBox="0 0 20 21" fill="none" xmlns="http://www.w3.org/2000/svg">
<path d="M16.8933 20H15.4181C15.1048 20 14.8508 19.746 14.8508 19.4327C14.8508 19.1194 15.1048 18.8654 15.4181 18.8654H16.8933C17.9808 18.8654 18.8656 17.9806 18.8656 16.8931V3.10687C18.8656 2.01941 17.9808 1.13461 16.8933 1.13461H8.37394C8.06062 1.13461 7.80664 0.880585 7.80664 0.567304C7.80664 0.254023 8.06062 0 8.37394 0H16.8934C18.6065 0 20.0002 1.39371 20.0002 3.10687V16.8932C20.0002 18.6063 18.6065 20 16.8933 20Z" fill="#102EDB"/>
<path d="M11.3162 20.001H3.10687C1.39371 20.001 0 18.6072 0 16.8941V3.10785C0 1.39469 1.39371 0.000976562 3.10687 0.000976562H4.38359C4.69691 0.000976562 4.95089 0.255 4.95089 0.568281C4.95089 0.881562 4.69691 1.13558 4.38359 1.13558H3.10687C2.01941 1.13558 1.13461 2.02035 1.13461 3.10785V16.8942C1.13461 17.9816 2.01937 18.8664 3.10687 18.8664H11.3162C11.6294 18.8664 11.8835 19.1204 11.8835 19.4337C11.8835 19.747 11.6294 20.001 11.3162 20.001Z" fill="#102EDB"/>
<path d="M15.9997 13.9285C15.539 13.9285 14.9756 13.9156 14.735 13.9101C14.6625 13.9085 14.6153 13.9074 14.6024 13.9073C14.2169 13.9056 13.885 13.7735 13.6158 13.5145C13.3975 13.3044 13.1861 13.0746 12.9817 12.8524C12.866 12.7267 12.7464 12.5966 12.6257 12.4703C12.5041 12.3431 12.3896 12.2391 12.2754 12.1524C12.1273 12.0395 11.9695 11.9797 11.8195 11.9797C11.5714 11.9797 11.367 12.1357 11.2589 12.4078C11.1346 12.7214 11.0392 13.4875 11.0357 13.5348C11.0204 13.7499 10.8974 13.8605 10.6597 13.8735C10.5038 13.882 10.3508 13.8864 10.205 13.8864C9.26565 13.8864 8.47265 13.7062 7.78066 13.3355C7.08089 12.9607 6.45343 12.4117 5.86257 11.6573C5.11605 10.7044 4.44379 9.59984 3.68281 8.07586C3.64629 8.00274 3.06223 6.7575 3.00617 6.61704C2.99024 6.55161 2.98156 6.44485 3.03691 6.40895C3.07906 6.40497 3.20738 6.39817 3.59039 6.39817C4.22906 6.39817 5.16894 6.4175 5.22093 6.41934C5.48406 6.4336 5.62746 6.53715 5.72949 6.78871C6.17527 7.88942 6.70605 8.81773 7.35218 9.62652C7.45011 9.74969 7.57804 9.86707 7.72202 9.9657C7.82308 10.035 7.93148 10.0717 8.03542 10.0717H8.03546C8.23335 10.0717 8.3964 9.94523 8.47159 9.7332C8.558 9.49203 8.62749 9.04812 8.63175 8.8127C8.64304 8.23516 8.63026 7.85848 8.59913 7.28039C8.57003 6.74586 8.31581 6.42653 7.82292 6.30676C7.97284 6.14461 8.17714 6.10309 8.48917 6.08641C8.66386 6.077 8.85491 6.07239 9.07343 6.07239C9.27651 6.07239 9.48417 6.07626 9.68499 6.08004C9.82608 6.0827 9.9671 6.08532 10.1081 6.08672C10.3407 6.08883 10.5423 6.10918 10.7249 6.14907C10.8358 6.17325 10.9884 6.23625 11.0335 6.50465C11.0566 6.64086 11.0668 6.77297 11.0639 6.89762C11.0581 7.15332 11.0494 7.41352 11.0412 7.66512C11.0292 8.02688 11.0168 8.40098 11.0125 8.77008C11.0091 9.05652 11.0335 9.32055 11.0849 9.55484C11.1529 9.86254 11.3374 10.0461 11.5787 10.0461C11.6801 10.0461 11.8355 10.0102 12.0005 9.83926C12.2617 9.56797 12.5139 9.2523 12.8183 8.8159C13.2154 8.24625 13.5584 7.58184 13.8978 6.72485C14.0117 6.43809 14.0409 6.41793 14.3442 6.41727C14.7422 6.41625 15.1401 6.41567 15.5381 6.41567C15.8873 6.41567 16.2366 6.41618 16.5858 6.41727C16.719 6.41786 16.8265 6.43161 16.9144 6.45954C16.9746 6.47872 17.0267 6.50661 16.9978 6.63375C16.8915 7.10547 16.6189 7.51746 16.3717 7.86653C16.0715 8.29035 15.7556 8.71563 15.4501 9.12691C15.2892 9.34344 15.1284 9.56004 14.9688 9.7775C14.9104 9.8573 14.8542 9.94629 14.7922 10.0574C14.5658 10.4672 14.6017 10.7546 14.9199 11.0832C15.0891 11.2577 15.2649 11.4294 15.435 11.5952C15.675 11.8295 15.9233 12.0718 16.151 12.3209C16.439 12.6365 16.6925 12.9662 16.9043 13.3006C17.0024 13.4555 17.0305 13.6055 16.9813 13.712C16.9338 13.8148 16.8119 13.8851 16.6381 13.9098C16.588 13.9166 16.4383 13.9285 15.9997 13.9285Z" fill="#CEE8FA"/>
<path d="M15.9996 14.4946C15.535 14.4946 14.968 14.4817 14.7259 14.4762C14.6569 14.4746 14.6134 14.4736 14.5991 14.4735C14.0711 14.4711 13.5948 14.2805 13.2225 13.9221C12.9907 13.699 12.7738 13.4633 12.5641 13.2353L12.5569 13.2273C12.4453 13.1062 12.33 12.9809 12.2155 12.861C12.1149 12.7558 12.0221 12.6712 11.932 12.6028C11.8799 12.563 11.8416 12.5496 11.8255 12.5466C11.8177 12.5551 11.8021 12.5755 11.786 12.6161C11.709 12.8105 11.6192 13.4044 11.6011 13.5807C11.5633 14.0809 11.2148 14.4101 10.6906 14.4388C10.524 14.4478 10.3607 14.4524 10.2049 14.4524C9.16965 14.4524 8.28903 14.2503 7.51262 13.8343C6.74204 13.4216 6.05618 12.8235 5.41583 12.0059C4.64501 11.0221 3.95392 9.88777 3.17513 8.32816C3.14205 8.26191 2.54537 6.99219 2.47912 6.82598C2.46924 6.80125 2.46115 6.7759 2.45482 6.75C2.3717 6.4086 2.47631 6.09508 2.72791 5.93184C2.80466 5.88207 2.89224 5.85157 2.9833 5.84301C3.01814 5.83965 3.12412 5.82969 3.59021 5.82969C4.24431 5.82969 5.18493 5.84926 5.24068 5.85118C5.24423 5.85133 5.24782 5.85145 5.25138 5.85168C5.73341 5.87778 6.07106 6.12086 6.25493 6.57426C6.67997 7.62379 7.1838 8.5059 7.79512 9.27125C7.84141 9.32953 7.90083 9.38789 7.96731 9.44093C8.01872 9.24465 8.06153 8.9509 8.06426 8.80125C8.07528 8.24047 8.06274 7.87352 8.03239 7.30973C8.01505 6.99153 7.90774 6.91012 7.68872 6.85692C7.49333 6.80942 7.33766 6.66203 7.27958 6.46957C7.22149 6.27707 7.26966 6.06821 7.40614 5.92055C7.70149 5.60114 8.08653 5.53879 8.45868 5.51891C8.64364 5.50891 8.84473 5.50403 9.07325 5.50403C9.28282 5.50403 9.49262 5.50793 9.69543 5.5118C9.83492 5.51442 9.97438 5.51704 10.1138 5.51844C10.385 5.52086 10.6247 5.54555 10.8457 5.59379C11.2479 5.68133 11.5204 5.97864 11.5929 6.40946C11.6218 6.58078 11.6346 6.74926 11.6309 6.90988C11.6251 7.16363 11.6167 7.42102 11.6084 7.66992L11.6079 7.68281C11.596 8.04477 11.5837 8.41418 11.5796 8.77555C11.5768 9.00629 11.5946 9.21668 11.6325 9.40176C11.858 9.16219 12.0822 8.87824 12.3528 8.49027C12.724 7.95773 13.0473 7.33 13.3701 6.51489C13.57 6.01172 13.8062 5.85 14.3428 5.84887C15.0908 5.847 15.8392 5.84649 16.5874 5.84887C16.7796 5.84965 16.9425 5.87219 17.0859 5.91774C17.4517 6.03434 17.6383 6.37192 17.5508 6.75809C17.4217 7.33117 17.1133 7.79938 16.8344 8.19332C16.5313 8.62125 16.2144 9.04785 15.908 9.46051C15.745 9.67984 15.5848 9.8955 15.4259 10.1121C15.3818 10.1724 15.3376 10.2425 15.2874 10.3327C15.177 10.5325 15.1912 10.5471 15.3271 10.6875C15.491 10.8565 15.6638 11.0251 15.8309 11.1882C16.0781 11.4294 16.3315 11.6768 16.5695 11.9371C16.8801 12.2775 17.1538 12.6335 17.3834 12.996C17.5866 13.3169 17.6276 13.6642 17.496 13.9489C17.4203 14.1129 17.2183 14.3992 16.7176 14.4703C16.6425 14.4807 16.487 14.4946 15.9996 14.4946ZM11.8194 11.4111C12.0948 11.4111 12.3714 11.511 12.6194 11.7C12.757 11.8046 12.8934 11.9281 13.0358 12.0771C13.1576 12.2046 13.2765 12.3338 13.3916 12.4588L13.399 12.4669C13.5974 12.6827 13.8023 12.9055 14.0092 13.1046C14.1719 13.2611 14.3668 13.3378 14.6048 13.3389C14.6187 13.3389 14.6697 13.34 14.7478 13.3418C14.9899 13.3473 15.5478 13.36 15.9995 13.36C16.1042 13.36 16.1905 13.3593 16.2611 13.3582C16.1039 13.1353 15.9266 12.9155 15.7317 12.7021C15.5159 12.466 15.2743 12.2301 15.0405 12.002C14.8659 11.8316 14.6875 11.6575 14.5123 11.4769C14.0179 10.9664 13.9471 10.412 14.2955 9.78172C14.3701 9.64785 14.4383 9.54011 14.511 9.4409C14.6714 9.22226 14.8329 9.0048 14.9944 8.7873C15.2999 8.37613 15.6129 7.95465 15.9086 7.53731C16.0296 7.36637 16.1575 7.17918 16.261 6.98246C15.6426 6.9811 15.0237 6.98168 14.4049 6.98313C14.0555 7.85754 13.6984 8.54391 13.2835 9.13906C12.9612 9.60121 12.6915 9.93812 12.4089 10.2315C12.1055 10.5462 11.7899 10.6122 11.5785 10.6122C11.0677 10.6122 10.6564 10.2447 10.5307 9.67601C10.4699 9.39883 10.4412 9.09164 10.445 8.76219C10.4493 8.38871 10.4618 8.01312 10.4738 7.64988L10.4743 7.63242C10.4825 7.38637 10.4909 7.13207 10.4965 6.88367C10.498 6.8193 10.4945 6.75137 10.4859 6.68063C10.3712 6.66328 10.2448 6.65418 10.1027 6.65293C9.95946 6.65145 9.81672 6.64883 9.67403 6.64614C9.46371 6.64223 9.24442 6.63797 9.03512 6.63864C9.10903 6.81949 9.15305 7.02356 9.16532 7.24844C9.19719 7.8407 9.21032 8.22727 9.19864 8.82262C9.19348 9.10762 9.11457 9.61851 9.00536 9.92336C8.84922 10.3634 8.47723 10.6378 8.03516 10.6378C7.81614 10.6378 7.59677 10.5668 7.40079 10.4323C7.21102 10.3023 7.04044 10.1453 6.90774 9.97832C6.22782 9.12711 5.67005 8.15266 5.20337 7.00047C5.20103 6.99473 5.19884 6.98965 5.19685 6.98508C5.19638 6.98504 5.19587 6.98496 5.19544 6.98496C5.10904 6.98258 4.37618 6.96789 3.78845 6.96488C3.9613 7.33692 4.16185 7.7641 4.19044 7.82203C4.93345 9.30996 5.58689 10.3847 6.30888 11.3063C6.8502 11.9975 7.41915 12.4972 8.04825 12.8342C8.65579 13.1597 9.36118 13.3179 10.2047 13.3179C10.2974 13.3179 10.3935 13.316 10.4918 13.3122C10.5289 13.0331 10.6115 12.4996 10.7311 12.1977C10.9271 11.705 11.3339 11.4111 11.8194 11.4111Z" fill="#102EDB"/>
</svg>
