<svg width="20" height="20" viewBox="0 0 20 20" fill="none" xmlns="http://www.w3.org/2000/svg">
<path d="M10.0003 16.4866C9.21644 16.4866 8.45144 16.3484 7.72398 16.0754L4.97542 16.4714C4.79995 16.4966 4.62257 16.4384 4.49628 16.3139C4.36995 16.1894 4.30917 16.013 4.33198 15.837L4.61882 13.6222C3.89487 12.5498 3.51343 11.3023 3.51343 9.99965C3.51343 6.4227 6.42343 3.5127 10.0004 3.5127C13.5773 3.5127 16.4873 6.4227 16.4873 9.99965C16.4873 13.5766 13.5772 16.4866 10.0003 16.4866ZM7.79046 14.9254C7.8628 14.9254 7.93479 14.9392 8.00233 14.9664C8.63765 15.2223 9.30987 15.352 10.0002 15.352C12.9515 15.352 15.3526 12.9509 15.3526 9.99961C15.3526 7.04836 12.9515 4.64727 10.0002 4.64727C7.04897 4.64727 4.64788 7.04836 4.64788 9.99961C4.64788 11.138 5.00073 12.2251 5.66835 13.1433C5.75362 13.2606 5.79077 13.4061 5.7721 13.5498L5.55296 15.2419L7.70952 14.9312C7.73644 14.9272 7.76351 14.9254 7.79046 14.9254Z" fill="#102EDB"/>
<path d="M16.8938 19.9998H15.4186C15.1053 19.9998 14.8513 19.7458 14.8513 19.4325C14.8513 19.1191 15.1053 18.8651 15.4186 18.8651H16.8938C17.9813 18.8651 18.8661 17.9804 18.8661 16.8929V3.10663C18.8661 2.01917 17.9813 1.13437 16.8938 1.13437H8.37443C8.06111 1.13437 7.80713 0.880381 7.80713 0.567061C7.80713 0.25374 8.06111 -0.000244141 8.37443 -0.000244141H16.8938C18.607 -0.000244141 20.0007 1.39347 20.0007 3.10663V16.8929C20.0007 18.606 18.607 19.9998 16.8938 19.9998Z" fill="#102EDB"/>
<path d="M11.3166 19.9998H3.10736C1.3942 19.9998 0.000488281 18.606 0.000488281 16.8929V3.10663C0.000488281 1.39347 1.3942 -0.000244141 3.10736 -0.000244141H4.38408C4.6974 -0.000244141 4.95139 0.25374 4.95139 0.567061C4.95139 0.880381 4.6974 1.13437 4.38408 1.13437H3.10736C2.0199 1.13437 1.1351 2.01913 1.1351 3.10663V16.8929C1.1351 17.9803 2.01986 18.8651 3.10736 18.8651H11.3166C11.6299 18.8651 11.8839 19.1191 11.8839 19.4325C11.8839 19.7458 11.6299 19.9998 11.3166 19.9998Z" fill="#102EDB"/>
<path d="M11.2658 10.9402L10.8853 11.3206C10.8527 11.3028 10.8176 11.2852 10.7821 11.2653C10.4555 11.0841 10.0523 10.881 9.58191 10.4107C9.11055 9.93926 8.90574 9.53578 8.72476 9.20918C8.70523 9.17485 8.6973 9.15238 8.67957 9.12028L9.03648 8.78481L9.07348 8.74781C9.35621 8.46508 9.35621 8.00656 9.07348 7.72383L8.51582 7.16617C8.23148 6.88184 7.76988 6.88363 7.48781 7.17027L7.33918 7.32125C7.24238 7.44504 7.16031 7.58902 7.10016 7.74258C7.04457 7.88922 7.00906 8.02965 6.99363 8.16942C6.85781 9.29223 7.12926 10.077 8.52133 11.4696C10.4462 13.3939 11.7458 13.019 11.8129 13.0115C11.9584 12.9943 12.108 12.9481 12.2501 12.8932C12.4025 12.8336 12.5477 12.7503 12.6709 12.6535L12.822 12.505C13.1088 12.2229 13.1108 11.7611 12.8262 11.4766L12.2898 10.9402C12.0071 10.6574 11.5486 10.6574 11.2658 10.9402Z" fill="#CEE8FA"/>
<path d="M11.4683 13.6129C11.4683 13.6129 11.4683 13.6129 11.4683 13.6129C10.7358 13.6129 9.56056 13.3106 8.12021 11.8707C6.69001 10.4399 6.26329 9.48918 6.43009 8.10402C6.45079 7.91855 6.49646 7.73449 6.5697 7.54137C6.57044 7.53945 6.57118 7.5375 6.57193 7.53559C6.65224 7.33051 6.76005 7.14074 6.89236 6.97164C6.90556 6.95473 6.91974 6.93855 6.9349 6.9232L7.08353 6.77219C7.32822 6.52359 7.65509 6.38672 8.00388 6.38672C8.3488 6.38672 8.6731 6.52105 8.91701 6.76496L9.47466 7.32262C9.71853 7.56648 9.85291 7.89078 9.85291 8.23574C9.85291 8.58074 9.71857 8.905 9.47466 9.14895L9.43775 9.18586C9.43361 9.19 9.42939 9.1941 9.42509 9.19805L9.3881 9.23281C9.52447 9.4666 9.69779 9.72395 9.98326 10.0095C10.2811 10.3073 10.54 10.4773 10.7856 10.618L10.8648 10.5388C11.1086 10.295 11.4329 10.1606 11.7779 10.1606C12.1228 10.1606 12.4471 10.2949 12.691 10.5388L13.2275 11.0754C13.4729 11.3207 13.6072 11.647 13.6058 11.9939C13.6043 12.3409 13.4672 12.6661 13.2197 12.9093L13.0687 13.0578C13.0538 13.0725 13.038 13.0864 13.0215 13.0994C12.8537 13.2312 12.6585 13.3426 12.4567 13.4214C12.2511 13.5009 12.0692 13.5501 11.8996 13.5722C11.838 13.5845 11.688 13.6129 11.4683 13.6129ZM7.62951 7.94656C7.59091 8.04894 7.5674 8.14219 7.55751 8.23141C7.55728 8.2334 7.55704 8.23539 7.55685 8.23734C7.44759 9.14094 7.6188 9.76414 8.92259 11.0684C10.1495 12.295 11.0442 12.4782 11.4683 12.4782C11.5837 12.4782 11.654 12.4642 11.684 12.4582C11.716 12.4519 11.7382 12.4487 11.7499 12.4475C11.8247 12.4387 11.9253 12.4105 12.0454 12.364C12.133 12.3297 12.2224 12.2804 12.2983 12.2242L12.4242 12.1004C12.4627 12.0625 12.471 12.019 12.4711 11.9893C12.4712 11.9595 12.4633 11.916 12.4251 11.8778L11.8887 11.3412C11.8508 11.3034 11.8074 11.2954 11.7778 11.2954C11.7482 11.2954 11.7049 11.3034 11.667 11.3412L11.2865 11.7217C11.1087 11.8995 10.835 11.939 10.6142 11.8188L10.5803 11.8008C10.5555 11.7878 10.53 11.7743 10.5043 11.7598L10.4287 11.7182C10.1086 11.5423 9.67041 11.3014 9.18072 10.8118C8.68732 10.3182 8.44525 9.87797 8.26849 9.55652L8.22947 9.4857C8.2124 9.45539 8.20013 9.43043 8.1883 9.40555L8.18263 9.39379C8.05708 9.16676 8.10197 8.88434 8.29099 8.70672L8.67224 8.34652C8.71021 8.30855 8.71818 8.26527 8.71818 8.23566C8.71818 8.20605 8.71017 8.16277 8.67224 8.1248L8.11458 7.56715C8.07662 7.52918 8.03333 7.52125 8.00373 7.52125C7.97376 7.52125 7.93009 7.52937 7.89197 7.56805L7.76857 7.69336C7.7131 7.76891 7.66529 7.85578 7.62951 7.94656Z" fill="#102EDB"/>
</svg>
