<svg width="72" height="73" viewBox="0 0 72 73" fill="none" xmlns="http://www.w3.org/2000/svg">
<path d="M18.7196 23.9893C8.39748 23.9893 0 32.4669 0 42.8872C0 47.2162 1.48322 51.4368 4.17982 54.7908C4.20078 54.8232 4.22329 54.8548 4.2472 54.8858L6.04625 57.2125C6.52443 57.8309 7.40848 57.9408 8.02087 57.4581C8.63326 56.9754 8.74229 56.0829 8.26411 55.4647L6.56115 53.2622C6.52809 53.2086 6.49137 53.1568 6.45085 53.1074C4.1054 50.2414 2.81365 46.6119 2.81365 42.8873C2.81365 34.0332 9.94906 26.8298 18.7196 26.8298C27.4902 26.8298 34.6256 34.0332 34.6256 42.8873C34.6256 46.5722 33.3576 50.1721 31.0554 53.0237C31.0382 53.045 31.0217 53.0666 31.0059 53.0888L18.7192 68.9872L14.811 63.9326C14.333 63.3143 13.449 63.2042 12.8364 63.6869C12.2239 64.1695 12.115 65.062 12.5931 65.6803L17.6105 72.1695C17.8771 72.5143 18.2863 72.716 18.7196 72.7158C19.1531 72.7158 19.5622 72.5142 19.8286 72.1692L33.2561 54.7946C33.2607 54.7886 33.2652 54.7827 33.2699 54.7766C35.9587 51.4263 37.4391 47.2061 37.4391 42.8873C37.4394 32.4669 29.0418 23.9893 18.7196 23.9893Z" fill="#102EDB"/>
<path d="M11.526 59.7022C11.2643 59.4381 10.9014 59.2861 10.5315 59.2861C10.1615 59.2861 9.79856 59.4381 9.53692 59.7022C9.27527 59.9664 9.12476 60.3327 9.12476 60.7062C9.12476 61.0797 9.27527 61.4461 9.53692 61.7102C9.79856 61.9744 10.1615 62.1263 10.5315 62.1263C10.9014 62.1263 11.2643 61.9744 11.526 61.7102C11.7876 61.4461 11.9381 61.0797 11.9381 60.7062C11.9381 60.3327 11.7876 59.9664 11.526 59.7022Z" fill="#102EDB"/>
<path d="M18.7196 31.5205C12.3586 31.5205 7.18359 36.7448 7.18359 43.1663C7.18359 49.5879 12.3587 54.8122 18.7196 54.8122C25.0805 54.8122 30.2555 49.5879 30.2555 43.1663C30.2555 36.7448 25.0805 31.5205 18.7196 31.5205ZM18.7196 51.9717C13.91 51.9717 9.99724 48.0217 9.99724 43.1663C9.99724 38.311 13.91 34.361 18.7196 34.361C23.5291 34.361 27.4419 38.311 27.4419 43.1663C27.4419 48.0217 23.5291 51.9717 18.7196 51.9717Z" fill="#102EDB"/>
<path d="M57.4046 0C49.3566 0 42.809 6.61 42.809 14.7347C42.809 18.1002 43.9618 21.3888 46.0563 24.0003C46.0597 24.0047 46.0631 24.0091 46.0665 24.0136L56.2953 37.2493C56.5619 37.5942 56.971 37.7958 57.4043 37.796C57.4043 37.796 57.4043 37.796 57.4045 37.796C57.8378 37.796 58.2469 37.5944 58.5135 37.2496L68.6937 24.0831C68.7137 24.0573 68.7325 24.031 68.7505 24.0042C70.847 21.391 72.0002 18.105 72.0002 14.7347C72.0002 6.61 65.4527 0 57.4046 0ZM66.4926 22.3047C66.4566 22.3488 66.4235 22.3946 66.3934 22.4419L57.4048 34.0673L48.3126 22.3025C48.298 22.2822 48.2828 22.2623 48.267 22.2428C46.5617 20.1307 45.6226 17.4642 45.6226 14.7348C45.6226 8.17636 50.9079 2.84059 57.4046 2.84059C63.9013 2.84059 69.1866 8.17622 69.1866 14.7348C69.1865 17.4935 68.2297 20.1819 66.4926 22.3047Z" fill="#102EDB"/>
<path d="M45.643 38.0863C45.033 37.6007 44.1484 37.7062 43.6674 38.3221C43.2524 38.8532 42.8979 39.432 42.6135 40.0427C42.2829 40.7524 42.585 41.5984 43.288 41.9321C43.4814 42.0238 43.6851 42.0674 43.8856 42.0674C44.4138 42.0674 44.9199 41.7657 45.1596 41.2512C45.3529 40.8361 45.5942 40.4423 45.8765 40.0809C46.3576 39.465 46.2531 38.572 45.643 38.0863Z" fill="#102EDB"/>
<path d="M32.7859 69.876H31.0979C30.3209 69.876 29.6912 70.5118 29.6912 71.2961C29.6912 72.0804 30.3209 72.7162 31.0979 72.7162H32.7859C33.5628 72.7162 34.1926 72.0804 34.1926 71.2961C34.1926 70.5118 33.5628 69.876 32.7859 69.876Z" fill="#102EDB"/>
<path d="M24.9078 69.876H23.9161C23.1392 69.876 22.5094 70.5118 22.5094 71.2961C22.5094 72.0804 23.1392 72.7162 23.9161 72.7162H24.9078C25.6847 72.7162 26.3145 72.0804 26.3145 71.2961C26.3145 70.5118 25.6847 69.876 24.9078 69.876Z" fill="#102EDB"/>
<path d="M43.1894 45.3701C42.4125 45.3701 41.7827 46.0059 41.7827 46.7902V48.4943C41.7827 49.2786 42.4125 49.9144 43.1894 49.9144C43.9663 49.9144 44.5961 49.2786 44.5961 48.4943V46.7902C44.5961 46.0059 43.9663 45.3701 43.1894 45.3701Z" fill="#102EDB"/>
<path d="M51.7762 34.9385H50.5748C50.3821 34.9385 50.1877 34.9449 49.9968 34.9575C49.2216 35.0086 48.6342 35.6846 48.6849 36.4672C48.7336 37.2183 49.3521 37.7949 50.0873 37.7947C50.1181 37.7947 50.1492 37.7937 50.1804 37.7916C50.3104 37.7831 50.443 37.7787 50.5748 37.7787H51.7762C52.5531 37.7787 53.1829 37.1429 53.1829 36.3586C53.1829 35.5743 52.5529 34.9385 51.7762 34.9385Z" fill="#102EDB"/>
<path d="M41.4311 68.8724C40.9558 68.2521 40.0722 68.1384 39.4578 68.6182C39.0971 68.9 38.7049 69.1396 38.2924 69.3306C37.5861 69.6573 37.276 70.5001 37.5997 71.2132C37.8364 71.7345 38.3462 72.0419 38.8794 72.0419C39.0755 72.0419 39.2746 72.0003 39.4645 71.9124C40.0721 71.6314 40.649 71.2788 41.1793 70.8645C41.7937 70.3847 41.9064 69.4927 41.4311 68.8724Z" fill="#102EDB"/>
<path d="M43.1888 61.2773C42.4119 61.2773 41.7821 61.9131 41.7821 62.6974V63.8398C41.7821 63.9916 41.7765 64.1449 41.7654 64.2956C41.708 65.0778 42.2895 65.7589 43.0642 65.8168C43.0996 65.8195 43.1348 65.8208 43.1697 65.8208C43.8993 65.8208 44.5162 65.252 44.571 64.5056C44.5872 64.2852 44.5954 64.0613 44.5954 63.8398V62.6974C44.5955 61.9131 43.9657 61.2773 43.1888 61.2773Z" fill="#102EDB"/>
<path d="M43.1894 53.3232C42.4125 53.3232 41.7827 53.959 41.7827 54.7433V56.4474C41.7827 57.2318 42.4125 57.8675 43.1894 57.8675C43.9663 57.8675 44.5961 57.2318 44.5961 56.4474V54.7433C44.5961 53.959 43.9663 53.3232 43.1894 53.3232Z" fill="#102EDB"/>
<path d="M57.404 7.63379C53.5254 7.63379 50.3699 10.8194 50.3699 14.7349C50.3699 18.6505 53.5254 21.836 57.404 21.836C61.2826 21.836 64.4381 18.6505 64.4381 14.7349C64.4381 10.8194 61.2826 7.63379 57.404 7.63379ZM57.404 18.9956C55.0768 18.9956 53.1835 17.0842 53.1835 14.7349C53.1835 12.3856 55.0768 10.4742 57.404 10.4742C59.7312 10.4742 61.6245 12.3856 61.6245 14.7349C61.6245 17.0842 59.7312 18.9956 57.404 18.9956Z" fill="#102EDB"/>
<path d="M64.7297 34.9385H63.0417C62.2648 34.9385 61.635 35.5743 61.635 36.3586C61.635 37.1429 62.2648 37.7787 63.0417 37.7787H64.7297C65.5067 37.7787 66.1364 37.1429 66.1364 36.3586C66.1364 35.5743 65.5067 34.9385 64.7297 34.9385Z" fill="#102EDB"/>
<path d="M13.5402 69.8438H11.8521C11.0752 69.8438 10.4454 70.4795 10.4454 71.2638C10.4454 72.0482 11.0752 72.6839 11.8521 72.6839H13.5402C14.3171 72.6839 14.9469 72.0482 14.9469 71.2638C14.9469 70.4795 14.3171 69.8438 13.5402 69.8438Z" fill="#102EDB"/>
</svg>
