<svg width="65" height="72" viewBox="0 0 65 72" fill="none" xmlns="http://www.w3.org/2000/svg">
<path d="M6.54822 31.7128C6.81118 31.4511 7.17273 31.3008 7.54244 31.3008C7.91369 31.3008 8.27509 31.4511 8.53665 31.7128C8.79962 31.9744 8.94995 32.3372 8.94995 32.707C8.94995 33.0769 8.79962 33.4397 8.53665 33.7011C8.27635 33.9627 7.91354 34.1133 7.54244 34.1133C7.17259 34.1133 6.80978 33.9628 6.54822 33.7011C6.28679 33.4397 6.13619 33.0769 6.13619 32.707C6.13619 32.3372 6.28665 31.9744 6.54822 31.7128Z" fill="#102EDB"/>
<path d="M1.8564 2.90526C2.80013 1.46807 4.24702 0.484402 5.93058 0.135652C7.61344 -0.212957 9.33258 0.114277 10.7696 1.05815C12.2068 2.00189 13.1905 3.44877 13.5392 5.13234L13.6889 5.85473C14.7807 2.64806 17.8197 0.334074 21.391 0.334074C25.8772 0.334074 29.5269 3.98385 29.5269 8.46993V9.6935C29.5269 12.0343 28.5318 14.1461 26.9442 15.6317C27.5283 15.8588 28.0936 16.1472 28.63 16.4995C30.6288 17.8121 31.9968 19.8244 32.4839 22.1742L33.6313 27.8906L36.268 30.5424H47.2445C49.7535 30.5424 51.7947 32.5837 51.7947 35.0926C51.7947 35.7078 51.6714 36.2945 51.449 36.8303H52.5889C55.2316 36.8303 57.5427 38.6164 58.209 41.1739L59.8688 47.544C60.0647 48.2956 59.6141 49.0636 58.8626 49.2593C58.7437 49.2904 58.6246 49.3051 58.5071 49.3051C57.8826 49.305 57.3121 48.8858 57.1473 48.2531L55.4875 41.8831C55.1438 40.564 53.9517 39.6428 52.5889 39.6428H31.9887C31.6132 39.6428 31.2533 39.4928 30.9894 39.2259L23.8704 32.034C23.3239 31.4821 23.3284 30.5916 23.8804 30.0453C24.4325 29.4987 25.3228 29.5033 25.8691 30.0553L32.5753 36.8302H47.2445C48.2026 36.8302 48.9822 36.0505 48.9822 35.0925C48.9822 34.1344 48.2026 33.3548 47.2445 33.3548H35.6831C35.3088 33.3548 34.9499 33.2054 34.686 32.9401L26.6365 24.8443C26.0887 24.2936 26.0914 23.4032 26.6421 22.8554C27.1929 22.308 28.0832 22.3102 28.6308 22.8612L30.0375 24.276L29.7284 22.7363C29.3957 21.1305 28.4573 19.7504 27.0863 18.8502C25.7155 17.95 24.0761 17.6374 22.471 17.9704C20.8652 18.3031 19.4851 19.2414 18.585 20.612C17.6849 21.9829 17.3724 23.622 17.7051 25.2278C17.7073 25.2383 17.7081 25.2487 17.71 25.2593L21.2355 42.2709C21.6394 44.2193 23.3768 45.6336 25.3665 45.6336H45.358C48.6552 45.6336 51.4171 48.1731 51.7577 51.3978C51.785 51.4618 51.8094 51.5274 51.8274 51.5968L56.1348 68.1288C56.2971 68.7519 56.8603 69.187 57.5042 69.187H60.7702C61.2119 69.187 61.62 68.9866 61.89 68.6371C62.1601 68.2878 62.251 67.8423 62.1398 67.4151L59.7912 58.4009C59.5953 57.6493 60.046 56.8813 60.7973 56.6856C61.5491 56.4893 62.3169 56.9402 62.5127 57.6917L64.8613 66.7059C65.1938 67.9825 64.922 69.3134 64.1153 70.3571C63.3086 71.401 62.0893 71.9996 60.7701 71.9996H57.5042C55.5803 71.9996 53.898 70.6994 53.4131 68.8379L50.1512 56.3181C50.0867 56.3898 50.021 56.4608 49.9529 56.5303C48.7205 57.7865 47.0094 58.5069 45.2584 58.5069H38.4131L43.2223 70.0528C43.403 70.4868 43.3549 70.9823 43.0942 71.3737C42.8335 71.7648 42.3943 71.9998 41.9242 71.9998H20.231C19.7608 71.9998 19.3217 71.7648 19.061 71.3737C18.8003 70.9825 18.7522 70.4868 18.9329 70.0528L23.7421 58.5069H16.6927C13.6567 58.5069 11.0062 56.3492 10.3902 53.3765L7.3118 38.5219C7.15416 37.7614 7.64283 37.0172 8.40347 36.8596C9.16341 36.7028 9.90816 37.1906 10.0658 37.9512L13.1442 52.806C13.491 54.4797 14.9834 55.6946 16.6929 55.6946H45.2586C46.2591 55.6946 47.2384 55.2814 47.9454 54.5607C48.6317 53.8611 48.9996 52.9515 48.9815 51.9992C48.9439 50.0401 47.3185 48.4461 45.3579 48.4461H25.3662C22.0498 48.4461 19.1544 46.0891 18.4813 42.8417L10.7851 5.70285C10.5888 4.7549 10.0349 3.94026 9.2257 3.40884C8.41641 2.8777 7.44863 2.69334 6.50095 2.88965C5.553 3.08596 4.73836 3.63988 4.20694 4.44904C3.67566 5.2582 3.49116 6.22598 3.68775 7.17379L7.86614 27.3366C8.02378 28.0971 7.53511 28.8413 6.77447 28.9989C6.01425 29.1566 5.26964 28.6679 5.11214 27.9072L0.933754 7.74444C0.585007 6.06088 0.912521 4.34245 1.8564 2.90526ZM26.789 58.5068L22.3402 69.1871H39.8153L35.3665 58.5068H26.789ZM21.3912 15.0167C24.3266 15.0167 26.7145 12.6286 26.7145 9.69336V8.46979C26.7145 5.53438 24.3264 3.14629 21.3912 3.14629C18.4558 3.14629 16.0678 5.53438 16.0678 8.46979V9.69336C16.0677 12.6286 18.4558 15.0167 21.3912 15.0167ZM16.3827 18.854C16.848 18.1875 17.3915 17.5942 18.002 17.087C17.1377 16.6892 16.3543 16.1454 15.6846 15.4856L16.3827 18.854Z" fill="#102EDB"/>
<path d="M58.7815 51.7685C59.043 51.5071 59.4058 51.3564 59.7758 51.3564C60.1456 51.3564 60.5084 51.5069 60.7698 51.7685C61.0314 52.0314 61.182 52.3929 61.182 52.7627C61.182 53.1339 61.0315 53.4954 60.7698 53.7569C60.5084 54.0197 60.1456 54.1689 59.7758 54.1689C59.4058 54.1689 59.0445 54.0197 58.7815 53.7569C58.52 53.4966 58.3695 53.1338 58.3695 52.7627C58.3695 52.3929 58.5198 52.03 58.7815 51.7685Z" fill="#102EDB"/>
</svg>
