<svg width="72" height="72" viewBox="0 0 72 72" fill="none" xmlns="http://www.w3.org/2000/svg">
<path d="M69.1874 13.5903V9.63167C69.1874 7.49867 67.4521 5.76336 65.3191 5.76336H62.8775C62.2786 2.4899 59.4071 0 55.963 0H42.2344C41.4577 0 40.8281 0.629718 40.8281 1.40625C40.8281 2.18278 41.4577 2.81249 42.2344 2.81249H55.963C58.2892 2.81249 60.1818 4.70502 60.1818 7.03124V11.25H46.6874V7.03124C46.6874 6.25471 46.0578 5.62499 45.2812 5.62499H26.7187C25.942 5.62499 25.3125 6.25471 25.3125 7.03124V11.25H11.8309V7.03124C11.8309 4.70502 13.7234 2.81249 16.0496 2.81249H30.164C30.9407 2.81249 31.5703 2.18278 31.5703 1.40625C31.5703 0.629718 30.9407 0 30.164 0H16.0496C12.6057 0 9.73404 2.48976 9.13512 5.76336H6.6808C4.5478 5.76336 2.81249 7.49867 2.81249 9.63167V13.5903C1.17576 14.1708 0 15.7338 0 17.5671V22.8221C0 25.1483 1.89253 27.0409 4.21874 27.0409C6.54496 27.0409 8.43748 25.1483 8.43748 22.8221V17.5671C8.43748 15.7339 7.26172 14.1708 5.62499 13.5903V9.63167C5.62499 9.04948 6.09861 8.57586 6.6808 8.57586H9.01855V55.2655C9.01855 58.0901 10.6937 60.5295 13.1019 61.6465V66.6561C13.1019 69.6026 15.4991 71.9999 18.4456 71.9999C21.3921 71.9999 23.7893 69.6026 23.7893 66.6561V62.2968H48.2465V66.6561C48.2465 69.6026 50.6437 71.9999 53.5903 71.9999C56.5368 71.9999 58.934 69.6026 58.934 66.6561V61.6362C61.33 60.5143 62.9944 58.0812 62.9944 55.2655V8.57586H65.3192C65.9014 8.57586 66.375 9.04948 66.375 9.63167V13.5903C64.7383 14.1708 63.5625 15.7338 63.5625 17.5671V22.8221C63.5625 25.1483 65.455 27.0409 67.7813 27.0409C70.1075 27.0409 72 25.1483 72 22.8221V17.5671C71.9999 15.7338 70.8241 14.1709 69.1874 13.5903ZM5.62499 22.8223C5.62499 23.5977 4.99415 24.2285 4.21874 24.2285C3.44334 24.2285 2.81249 23.5977 2.81249 22.8223V17.5673C2.81249 16.7919 3.44334 16.161 4.21874 16.161C4.99415 16.161 5.62499 16.7919 5.62499 17.5673V22.8223ZM45.9342 14.0625L41.5536 18.4431C41.0045 18.9922 41.0045 19.8827 41.5536 20.4319C41.8283 20.7064 42.1881 20.8438 42.548 20.8438C42.9078 20.8438 43.2678 20.7064 43.5423 20.4319L49.9118 14.0625H58.1862L37.4067 34.8417V14.0625H45.9342ZM28.1249 8.43748H43.8749V11.25H28.1249V8.43748ZM28.5865 32.9906C28.0373 32.4417 27.147 32.4416 26.5976 32.9906L17.8565 41.7317H16.9553L12.6062 37.3826L34.5942 15.3945V41.7317H21.8341L28.5865 34.9793C29.1356 34.4301 29.1358 33.5397 28.5865 32.9906ZM11.8309 14.0625H31.9487L11.8309 34.1802V14.0625ZM20.9767 66.6561C20.9767 68.0518 19.8412 69.1874 18.4455 69.1874C17.0498 69.1874 15.9142 68.0518 15.9142 66.6561V62.2968H16.0496H20.9767V66.6561ZM56.1214 66.6561C56.1214 68.0518 54.9858 69.1874 53.5901 69.1874C52.1944 69.1874 51.0589 68.0518 51.0589 66.6561V62.2968H55.963H56.1214V66.6561ZM60.1818 55.2655C60.1818 57.5917 58.2892 59.4843 55.963 59.4843H16.0496C13.7234 59.4843 11.8309 57.5917 11.8309 55.2655V40.5849L15.3784 44.1324C15.6421 44.3961 15.9999 44.5443 16.3728 44.5443H55.6271C56 44.5443 56.3577 44.3961 56.6214 44.1324L60.1818 40.5721V55.2655ZM60.1818 36.5945L55.0446 41.7317H37.4067V38.8193L60.1818 16.0444V36.5945ZM69.1874 22.8223C69.1874 23.5977 68.5565 24.2285 67.7811 24.2285C67.0057 24.2285 66.3749 23.5977 66.3749 22.8223V17.5673C66.3749 16.7919 67.0057 16.161 67.7811 16.161C68.5565 16.161 69.1874 16.7919 69.1874 17.5673V22.8223Z" fill="#102EDB"/>
</svg>
