<svg width="73" height="72" viewBox="0 0 73 72" fill="none" xmlns="http://www.w3.org/2000/svg">
<path d="M67.7773 16.5908H45.0693V4.85452C45.0693 2.17772 42.8916 0 40.2148 0H29.6006C28.8241 0 28.1943 0.629719 28.1943 1.40625C28.1943 2.18278 28.8241 2.8125 29.6006 2.8125H40.2148C41.3408 2.8125 42.2568 3.72853 42.2568 4.85452V9.09352H3.44434V4.85452C3.44434 3.72853 4.36037 2.8125 5.48635 2.8125H16.9404C17.7169 2.8125 18.3466 2.18278 18.3466 1.40625C18.3466 0.629719 17.7169 0 16.9404 0H5.48635C2.80955 0 0.631836 2.17772 0.631836 4.85452V44.9269C0.631836 47.106 2.07535 48.9541 4.0562 49.5661V50.8184C4.0562 53.3498 6.11579 55.4092 8.64704 55.4092C11.1783 55.4092 13.2379 53.3496 13.2379 50.8184V49.7812H28.1943V61.5177C28.1943 63.6968 29.6379 65.5449 31.6187 66.1569V67.4092C31.6187 69.9405 33.6783 72 36.2095 72C38.7408 72 40.8004 69.9404 40.8004 67.4092V66.3722H60.0442V67.4092C60.0442 69.9405 62.1038 72 64.6351 72C67.1663 72 69.2259 69.9404 69.2259 67.4092V66.1513C71.1975 65.5335 72.6318 63.6899 72.6318 61.5177V21.4453C72.6318 18.7687 70.4541 16.5908 67.7773 16.5908ZM3.44434 11.9059H23.4924L4.6021 30.7965L3.44434 29.6387V11.9059ZM10.4257 50.8182H10.4255C10.4255 51.7989 9.62776 52.5966 8.64718 52.5966C7.6666 52.5966 6.86884 51.7988 6.86884 50.8182V49.7812H10.4257V50.8182ZM28.1943 40.2581H16.9404C16.1639 40.2581 15.5341 40.8878 15.5341 41.6644C15.5341 42.4409 16.1639 43.0706 16.9404 43.0706H28.1943V46.9688H5.48635C4.36037 46.9688 3.44434 46.0527 3.44434 44.9267V33.6161L5.97629 36.1481C6.2401 36.4118 6.59771 36.56 6.97065 36.56H28.1943V40.2581ZM28.1943 21.4453V33.7475H18.7346L24.3349 28.1472C24.884 27.5981 24.884 26.7076 24.3349 26.1584C23.7856 25.6094 22.8954 25.6094 22.346 26.1584L14.7569 33.7475H7.55326L6.59096 32.7852L27.4701 11.9059H42.2568V16.5908H33.0489C30.3722 16.5908 28.1943 18.7685 28.1943 21.4453ZM40.7479 40.7926C41.0226 41.0671 41.3824 41.2045 41.7423 41.2045C42.1021 41.2045 42.462 41.0671 42.7366 40.7926L55.0325 28.4968H64.161L42.3194 50.3384H35.1156L31.0068 46.2295V28.4968H51.0549L40.7479 38.8038C40.1988 39.3529 40.1988 40.2434 40.7479 40.7926ZM37.9882 67.4092C37.988 68.3899 37.1903 69.1875 36.2097 69.1875C35.2291 69.1875 34.4313 68.3897 34.4313 67.4092V66.3722H37.9882V67.4092ZM66.4137 67.4092H66.4135C66.4135 68.3899 65.6158 69.1875 64.6352 69.1875C63.6546 69.1875 62.8569 68.3897 62.8569 67.4092V66.3722H66.4137V67.4092ZM69.8193 61.5177C69.8193 62.6437 68.9033 63.5595 67.7773 63.5595H33.0489C31.9229 63.5595 31.0068 62.6435 31.0068 61.5175V50.2069L33.5388 52.7389C33.8026 53.0025 34.1602 53.1508 34.5331 53.1508H66.2826C66.6556 53.1508 67.0132 53.0025 67.277 52.7389L69.8193 50.1968V61.5177ZM69.8193 46.2192L65.7001 50.3384H46.297L68.1387 28.4968H69.8193V46.2192ZM69.8193 25.6843H31.0068V21.4453C31.0068 20.3193 31.9229 19.4033 33.0489 19.4033H67.7775C68.9033 19.4033 69.8193 20.3193 69.8193 21.4453V25.6843Z" fill="#102EDB"/>
</svg>
