<svg width="43" height="43" viewBox="0 0 43 43" fill="none" xmlns="http://www.w3.org/2000/svg">
<g clip-path="url(#clip0)">
<path d="M40.2899 3.7793H36.2468C35.8952 3.7793 35.6097 4.06471 35.6097 4.4164C35.6097 4.76841 35.8952 5.05383 36.2468 5.05383H40.2899C41.0815 5.05383 41.7255 5.69781 41.7255 6.48943V16.2152C41.7255 17.0068 41.0815 17.6508 40.2899 17.6508H25.3896C25.2206 17.6508 25.0585 17.7181 24.9388 17.8375L21.2688 21.5075V18.2883C21.2688 17.9362 20.9837 17.6508 20.6317 17.6508H19.4181C18.6265 17.6508 17.9825 17.0068 17.9825 16.2152V6.48943C17.9825 5.69781 18.6265 5.05383 19.4181 5.05383H34.1226C34.4746 5.05383 34.7601 4.76841 34.7601 4.4164C34.7601 4.06471 34.4746 3.7793 34.1226 3.7793H19.4181C17.9238 3.7793 16.708 4.9951 16.708 6.48943V16.2152C16.708 17.7095 17.9238 18.9254 19.4181 18.9254H19.9946V23.0458C19.9946 23.3037 20.1497 23.536 20.3879 23.6347C20.4666 23.6672 20.5493 23.6833 20.6317 23.6833C20.7973 23.6833 20.9604 23.6183 21.0824 23.4966L25.6533 18.9254H40.2899C41.7842 18.9254 43 17.7095 43 16.2152V6.48943C43 4.9951 41.7842 3.7793 40.2899 3.7793Z" fill="#232323"/>
<path d="M23.0355 11.9528C23.7911 11.4358 24.7316 10.7918 24.7316 9.69084C24.7316 9.16856 24.52 8.72338 24.1201 8.40352C23.7665 8.1204 23.279 7.95801 22.7826 7.95801C21.866 7.95801 20.892 8.52162 20.892 9.56585C20.892 10.0265 21.0859 10.2505 21.4848 10.2505C21.9349 10.2505 22.1777 10.0005 22.1777 9.76564C22.1777 9.3759 22.4011 9.15216 22.7908 9.15216C23.2498 9.15216 23.4125 9.46481 23.4125 9.73218C23.4125 10.2272 22.8289 10.6557 22.2108 11.1094C21.5133 11.6212 20.7922 12.1507 20.7922 12.8435V13.6506C20.7922 13.9009 21.1334 14.0607 21.3683 14.0607H24.3301C24.544 14.0607 24.7316 13.7874 24.7316 13.4757C24.7316 13.1732 24.544 12.9078 24.3301 12.9078H22.1609V12.8435C22.1609 12.5516 22.5664 12.2743 23.0355 11.9528Z" fill="#232323"/>
<path d="M28.2569 14.0603C28.7099 14.0603 28.9163 13.8481 28.9163 13.6506V12.7792H29.2634C29.4704 12.7792 29.6735 12.4774 29.6735 12.1697C29.6735 11.7508 29.4609 11.5601 29.2634 11.5601H28.9163V10.9883C28.9163 10.8033 28.7437 10.5868 28.2569 10.5868C27.77 10.5868 27.5975 10.803 27.5975 10.9883V11.5601H26.9098L28.3746 8.62168C28.397 8.57018 28.4173 8.51506 28.4173 8.45929C28.4173 8.32347 28.3304 8.19323 28.1722 8.09251C28.0433 8.01083 27.8809 7.95801 27.7579 7.95801C27.5158 7.95801 27.3206 8.07808 27.2077 8.29657L25.2859 12.0647C25.2269 12.173 25.218 12.2707 25.218 12.3193C25.218 12.5945 25.3965 12.7792 25.6616 12.7792H27.5975V13.6502C27.5975 13.8481 27.8038 14.0603 28.2569 14.0603Z" fill="#232323"/>
<path d="M33.2303 7.83141L30.3106 13.8291C30.2833 13.8835 30.2676 13.9426 30.2676 13.9918C30.2676 14.21 30.4592 14.4435 30.7443 14.4435C30.9116 14.4435 31.0694 14.3553 31.1281 14.2296L34.0564 8.23165C34.0849 8.17457 34.0908 8.11158 34.0908 8.06893C34.0908 7.79861 33.8317 7.61719 33.5892 7.61719C33.4252 7.61719 33.2943 7.69527 33.2303 7.83141Z" fill="#232323"/>
<path d="M35.461 10.0675C35.8232 10.0675 36.129 9.87981 36.129 9.65738V9.1105H37.5967V9.67936L35.5516 13.2211C35.5106 13.2953 35.4922 13.3635 35.4922 13.4426C35.4922 13.8359 35.9318 14.1102 36.3265 14.1102C36.5141 14.1102 36.6371 14.0515 36.7018 13.9298L38.6485 10.2029C38.7112 10.0855 38.9159 9.68034 38.9159 9.40772V8.36776C38.9159 8.18896 38.6364 7.95801 38.3395 7.95801H35.3862C35.0956 7.95801 34.8098 8.16108 34.8098 8.36776V9.65738C34.8098 9.88341 35.1021 10.0675 35.461 10.0675Z" fill="#232323"/>
<path d="M26.3517 25.9035C26.0203 25.5722 25.5794 25.3898 25.1106 25.3898C24.6418 25.3898 24.2009 25.5722 23.8695 25.9035L19.9745 29.7986C18.4234 28.988 17.074 28.215 15.5663 26.9435C15.2973 26.7168 14.8954 26.7509 14.6684 27.0199C14.4417 27.2889 14.4758 27.6908 14.7448 27.9178C16.4862 29.3859 18.0018 30.2146 19.8022 31.1453C20.0486 31.2726 20.3491 31.226 20.5453 31.0298L22.6409 28.9345L29.5496 35.8432C27.3181 37.7587 24.1579 38.4257 20.5699 37.7203C16.5347 36.9268 12.2646 34.4423 8.54637 30.7241C4.8281 27.0058 2.34335 22.7354 1.54977 18.7002C0.844434 15.1119 1.51139 11.9516 3.42662 9.72048L10.3363 16.6298L8.23996 18.7258C8.04378 18.922 7.99719 19.2228 8.12481 19.4692C9.39376 21.9228 10.4176 23.7232 12.9824 26.2883C13.2314 26.537 13.635 26.537 13.8836 26.2883C14.1326 26.0393 14.1326 25.6358 13.8836 25.3871C11.5842 23.0877 10.6207 21.4953 9.47151 19.297L13.3669 15.4012C13.6986 15.0699 13.881 14.629 13.881 14.1602C13.881 13.6914 13.6986 13.2504 13.3669 12.9191L7.11995 6.67212C6.78861 6.34045 6.34769 6.15771 5.87889 6.15771C5.41009 6.15771 4.96917 6.34045 4.63783 6.67179L2.95847 8.35114C0.402862 10.9068 -0.541632 14.6696 0.299193 18.9459C1.141 23.2268 3.74976 27.7298 7.64518 31.6253C11.5403 35.5203 16.0433 38.1291 20.3242 38.9706C21.3431 39.171 22.3326 39.2701 23.284 39.2698C26.3248 39.2698 28.9722 38.258 30.919 36.3113L32.598 34.6323C32.9297 34.3006 33.1121 33.86 33.1121 33.3912C33.1121 32.9224 32.9297 32.4815 32.598 32.1502L26.3517 25.9035ZM5.53902 7.57298C5.62956 7.48243 5.75029 7.43224 5.87889 7.43224C6.00749 7.43224 6.12822 7.48211 6.21876 7.57298L12.4661 13.8203C12.5566 13.9108 12.6068 14.0316 12.6068 14.1602C12.6068 14.2888 12.5566 14.4095 12.4661 14.5L11.2375 15.7286L4.31042 8.80158L5.53902 7.57298ZM31.6971 33.7311L30.4682 34.9597L23.5421 28.0333L24.7707 26.8047C24.8613 26.7138 24.9823 26.664 25.1106 26.664C25.2389 26.664 25.3596 26.7138 25.4505 26.8047L31.6971 33.051C31.8845 33.2387 31.8845 33.5438 31.6971 33.7311Z" fill="#232323"/>
</g>
<defs>
<clipPath id="clip0">
<rect width="43" height="43" fill="white"/>
</clipPath>
</defs>
</svg>
