<svg width="87" height="61" viewBox="0 0 87 61" fill="none" xmlns="http://www.w3.org/2000/svg">
<path d="M86.9999 0.522949H0V60.5224H86.9999V0.522949Z" fill="white"/>
<path d="M48.9374 0.522461H38.0624V24.8968H0V36.1466H38.0624V60.521H48.9374V36.1466H86.9999V24.8968H48.9374V0.522461Z" fill="#FF0000"/>
<path d="M66.9126 40.9561L86.9999 52.5004V40.9561H66.9126Z" fill="#102EDB"/>
<path d="M52.9565 40.9561L87 60.5208V54.9884L62.5835 40.9561H52.9565Z" fill="#0052B4"/>
<path d="M77.9317 60.5207L52.9563 46.166V60.5207H77.9317Z" fill="#102EDB"/>
<path d="M52.9563 40.9561L86.9998 60.5208V54.9884L62.5832 40.9561H52.9563Z" fill="#F0F0F0"/>
<path d="M52.9563 40.9561L86.9998 60.5208V54.9884L62.5832 40.9561H52.9563Z" fill="#FF0000"/>
<path d="M15.3509 40.9561L0 49.7783V40.9561H15.3509Z" fill="#102EDB"/>
<path d="M34.0433 43.4438V60.5208H4.3313L34.0433 43.4438Z" fill="#102EDB"/>
<path d="M24.4165 40.9561L0 54.9884V60.5208L34.0435 40.9561H24.4165Z" fill="#FF0000"/>
<path d="M20.0873 20.0873L0 8.54297V20.0873H20.0873Z" fill="#102EDB"/>
<path d="M34.0435 20.0872L0 0.522461V6.05489L24.4165 20.0872H34.0435Z" fill="#0052B4"/>
<path d="M9.06787 0.522461L34.0433 14.8772V0.522461H9.06787Z" fill="#102EDB"/>
<path d="M34.0435 20.0872L0 0.522461V6.05489L24.4165 20.0872H34.0435Z" fill="#F0F0F0"/>
<path d="M34.0435 20.0872L0 0.522461V6.05489L24.4165 20.0872H34.0435Z" fill="#FF0000"/>
<path d="M71.6489 20.0874L86.9998 11.2651V20.0874H71.6489Z" fill="#102EDB"/>
<path d="M52.9563 17.5994V0.522461H82.6683L52.9563 17.5994Z" fill="#102EDB"/>
<path d="M62.5832 20.0872L86.9998 6.05489V0.522461L52.9563 20.0872H62.5832Z" fill="#FF0000"/>
</svg>
