<svg width="30" height="30" viewBox="0 0 30 30" fill="none" xmlns="http://www.w3.org/2000/svg">
<path d="M21.3911 18.045C21.3788 16.781 20.3507 15.7628 19.0866 15.7628H16.9742V12.5591C16.9742 11.6645 17.6994 10.9394 18.5939 10.9394H19.3678C20.5124 10.9394 21.4403 10.0115 21.4403 8.86689C21.4403 7.72232 20.5124 6.79443 19.3678 6.79443H17.4621C14.647 6.79443 12.3649 9.07648 12.3649 11.8916V15.7627H10.8642C9.59141 15.7627 8.55957 16.7945 8.55957 18.0673C8.55957 19.3401 9.59135 20.3719 10.8642 20.3719H12.3649V29.1489H16.9742V20.372H19.0866C20.3681 20.372 21.4035 19.3265 21.3911 18.045Z" fill="#CEE8FA"/>
<path d="M16.9742 29.9998H12.3649C11.895 29.9998 11.514 29.6188 11.514 29.1488V21.2228H10.8642C9.12424 21.2228 7.70862 19.8072 7.70862 18.0672C7.70862 16.3272 9.12418 14.9116 10.8642 14.9116H11.514V11.8914C11.514 8.61166 14.1823 5.94336 17.4621 5.94336H19.3678C20.9798 5.94336 22.2913 7.2548 22.2913 8.86678C22.2913 10.4787 20.9798 11.7902 19.3678 11.7902H18.5939C18.17 11.7902 17.8251 12.1351 17.8251 12.5589V14.9117H19.0866C20.8098 14.9117 22.2253 16.3136 22.242 18.0366C22.2503 18.8853 21.9259 19.6848 21.3287 20.2878C20.7314 20.8907 19.9352 21.2228 19.0865 21.2228H17.8251V29.1488C17.8252 29.6188 17.4442 29.9998 16.9742 29.9998ZM13.216 28.2979H16.1233V20.3718C16.1233 19.9018 16.5043 19.5208 16.9743 19.5208H19.0867C19.4776 19.5208 19.8445 19.3678 20.1195 19.09C20.3946 18.8123 20.5441 18.444 20.5402 18.053C20.5326 17.2593 19.8805 16.6135 19.0866 16.6135H16.9742C16.5042 16.6135 16.1233 16.2325 16.1233 15.7625V12.5588C16.1233 11.1965 17.2316 10.0881 18.5939 10.0881H19.3679C20.0414 10.0881 20.5894 9.5402 20.5894 8.8666C20.5894 8.19307 20.0415 7.6451 19.3679 7.6451H17.4621C15.1208 7.6451 13.216 9.54992 13.216 11.8913V15.7624C13.216 16.2324 12.835 16.6133 12.365 16.6133H10.8642C10.0627 16.6133 9.41065 17.2654 9.41065 18.0671C9.41065 18.8686 10.0627 19.5206 10.8642 19.5206H12.365C12.835 19.5206 13.216 19.9016 13.216 20.3716V28.2979H13.216Z" fill="#102EDB"/>
<path d="M25.3396 30H23.1267C22.6567 30 22.2757 29.619 22.2757 29.149C22.2757 28.6791 22.6567 28.2981 23.1267 28.2981H25.3396C26.9707 28.2981 28.2979 26.9709 28.2979 25.3397V4.66031C28.2979 3.02912 26.9708 1.70191 25.3396 1.70191H12.5604C12.0904 1.70191 11.7095 1.32094 11.7095 0.850957C11.7095 0.380977 12.0904 0 12.5604 0H25.3396C27.9093 0 29.9999 2.09057 29.9999 4.66031V25.3397C29.9999 27.9094 27.9093 30 25.3396 30Z" fill="#102EDB"/>
<path d="M16.9742 30H4.66031C2.09057 30 0 27.9094 0 25.3397V4.66031C0 2.09057 2.09057 0 4.66031 0H6.57539C7.04537 0 7.42635 0.380977 7.42635 0.850957C7.42635 1.32094 7.04537 1.70191 6.57539 1.70191H4.66031C3.02912 1.70191 1.70191 3.02906 1.70191 4.66031V25.3397C1.70191 26.9709 3.02906 28.2981 4.66031 28.2981H16.9742C17.4442 28.2981 17.8252 28.6791 17.8252 29.149C17.8252 29.619 17.4442 30 16.9742 30Z" fill="#102EDB"/>
</svg>
