<svg width="14" height="14" viewBox="0 0 14 14" fill="none" xmlns="http://www.w3.org/2000/svg">
<g clip-path="url(#clip0)">
<path d="M12 0C11.7238 0 11.5 0.223857 11.5 0.500009V2.32649C8.92579 -0.165703 4.81869 -0.0991992 2.32649 2.47497C1.15198 3.68812 0.49676 5.31143 0.500012 6.99999C0.500012 7.27614 0.723869 7.49999 1.00002 7.49999C1.27617 7.49999 1.5 7.27614 1.5 6.99999C1.50062 3.96243 3.96351 1.50047 7.0011 1.50108C8.54378 1.50138 10.0154 2.14957 11.057 3.28749L8.84203 4.02597C8.5797 4.11325 8.43776 4.39664 8.52503 4.65896C8.61231 4.92129 8.8957 5.06323 9.15802 4.97595L12.158 3.97596C12.3628 3.90776 12.5007 3.71581 12.5 3.49998V0.49998C12.5 0.223857 12.2761 0 12 0Z" fill="#59595A"/>
<path d="M13 6.5C12.7239 6.5 12.5 6.72386 12.5 7.00001C12.4994 10.0376 10.0365 12.4995 6.99893 12.4989C5.45625 12.4986 3.98464 11.8504 2.94302 10.7125L5.15801 9.97401C5.42033 9.88674 5.56228 9.60335 5.475 9.34103C5.38772 9.07871 5.10434 8.93676 4.84201 9.02404L1.84201 10.024C1.63723 10.0922 1.49933 10.2842 1.5 10.5V13.5C1.5 13.7762 1.72386 14 2.00001 14C2.27616 14 2.50002 13.7762 2.50002 13.5V11.6735C5.07422 14.1657 9.18135 14.0992 11.6735 11.525C12.848 10.3119 13.5032 8.68856 13.5 7.00001C13.5001 6.72386 13.2762 6.5 13 6.5Z" fill="#59595A"/>
</g>
<defs>
<clipPath id="clip0">
<rect width="14" height="14" fill="white"/>
</clipPath>
</defs>
</svg>
