<svg width="30" height="30" viewBox="0 0 30 30" fill="none" xmlns="http://www.w3.org/2000/svg">
<path d="M25.3399 29.9992H23.1271C22.6572 29.9992 22.2761 29.6182 22.2761 29.1483C22.2761 28.6784 22.6572 28.2974 23.1271 28.2974H25.3399C26.9711 28.2974 28.2983 26.9703 28.2983 25.3391V4.6602C28.2983 3.02905 26.9711 1.70187 25.3399 1.70187H12.5611C12.0912 1.70187 11.7102 1.32085 11.7102 0.850936C11.7102 0.381026 12.0912 0 12.5611 0H25.34C27.9096 0 30.0002 2.09051 30.0002 4.6602V25.3392C30.0001 27.9087 27.9096 29.9992 25.3399 29.9992Z" fill="#102EDB"/>
<path d="M16.9738 30.0002H4.66019C2.09051 30.0002 0 27.9097 0 25.34V4.66117C0 2.09149 2.09051 0.000976562 4.66019 0.000976562H6.57522C7.04519 0.000976562 7.42616 0.382002 7.42616 0.851912C7.42616 1.32182 7.04519 1.70285 6.57522 1.70285H4.66019C3.02904 1.70285 1.70187 3.02996 1.70187 4.66117V25.3401C1.70187 26.9713 3.02899 28.2985 4.66019 28.2985H16.9738C17.4437 28.2985 17.8248 28.6795 17.8248 29.1494C17.8248 29.6193 17.4437 30.0002 16.9738 30.0002Z" fill="#102EDB"/>
<path d="M23.9985 20.8925C23.3076 20.8925 22.4624 20.8731 22.1016 20.8649C21.9929 20.8625 21.922 20.8608 21.9027 20.8608C21.3245 20.8582 20.8266 20.66 20.4229 20.2715C20.0954 19.9564 19.7783 19.6117 19.4717 19.2784C19.2981 19.0898 19.1187 18.8948 18.9378 18.7053C18.7553 18.5145 18.5835 18.3585 18.4123 18.2284C18.1902 18.0591 17.9535 17.9694 17.7284 17.9694C17.3562 17.9694 17.0497 18.2034 16.8875 18.6115C16.7011 19.082 16.5581 20.2311 16.5528 20.302C16.5298 20.6247 16.3453 20.7905 15.9887 20.8101C15.7549 20.8228 15.5254 20.8293 15.3067 20.8293C13.8978 20.8293 12.7083 20.559 11.6703 20.003C10.6207 19.4408 9.67954 18.6174 8.79327 17.4858C7.67351 16.0566 6.66514 14.3997 5.52371 12.1138C5.46892 12.0041 4.59285 10.1363 4.50877 9.92559C4.48486 9.82745 4.47186 9.66732 4.55488 9.61347C4.6181 9.6075 4.81058 9.5973 5.38508 9.5973C6.34306 9.5973 7.75285 9.62631 7.83083 9.62906C8.22551 9.65045 8.4406 9.80577 8.59365 10.1831C9.2623 11.8341 10.0585 13.2266 11.0276 14.4397C11.1745 14.6245 11.3664 14.8005 11.5824 14.9485C11.734 15.0525 11.8965 15.1074 12.0525 15.1074H12.0525C12.3493 15.1074 12.5939 14.9178 12.7067 14.5997C12.8363 14.238 12.9405 13.5721 12.9469 13.219C12.9639 12.3527 12.9447 11.7877 12.898 10.9206C12.8544 10.1188 12.473 9.63984 11.7337 9.4602C11.9586 9.21698 12.265 9.1547 12.7331 9.12968C12.9951 9.11556 13.2817 9.10864 13.6094 9.10864C13.9141 9.10864 14.2255 9.11444 14.5268 9.12013C14.7384 9.12411 14.9499 9.12804 15.1614 9.13015C15.5103 9.13331 15.8127 9.16384 16.0865 9.22366C16.253 9.25993 16.4819 9.35444 16.5495 9.75702C16.5841 9.96134 16.5994 10.1595 16.595 10.3465C16.5863 10.73 16.5734 11.1203 16.561 11.4977C16.543 12.0403 16.5244 12.6014 16.518 13.1551C16.5129 13.5847 16.5495 13.9808 16.6266 14.3322C16.7285 14.7937 17.0053 15.0691 17.3672 15.0691C17.5193 15.0691 17.7525 15.0152 17.9999 14.7588C18.3917 14.3519 18.7701 13.8784 19.2266 13.2238C19.8223 12.3694 20.3368 11.3728 20.8458 10.0873C21.0167 9.65718 21.0604 9.62695 21.5153 9.62595C22.1123 9.62443 22.7092 9.62355 23.3062 9.62355C23.83 9.62355 24.3539 9.62431 24.8778 9.62595C25.0775 9.62683 25.2388 9.64746 25.3707 9.68935C25.4609 9.71812 25.539 9.75995 25.4958 9.95067C25.3363 10.6582 24.9273 11.2762 24.5566 11.7998C24.1062 12.4355 23.6324 13.0734 23.1742 13.6903C22.9329 14.0151 22.6916 14.34 22.4524 14.6662C22.3646 14.7859 22.2804 14.9194 22.1875 15.086C21.8477 15.7007 21.9016 16.1319 22.3789 16.6247C22.6328 16.8865 22.8965 17.1439 23.1515 17.3927C23.5116 17.7441 23.884 18.1075 24.2256 18.4812C24.6575 18.9545 25.0378 19.4491 25.3555 19.9507C25.5027 20.183 25.5448 20.408 25.4709 20.5678C25.3997 20.722 25.2169 20.8274 24.9561 20.8644C24.8811 20.8747 24.6564 20.8925 23.9985 20.8925Z" fill="#CEE8FA"/>
<path d="M23.9989 21.7407C23.302 21.7407 22.4515 21.7213 22.0884 21.7131C21.9849 21.7107 21.9197 21.7091 21.8982 21.709C21.1062 21.7054 20.3919 21.4195 19.8333 20.8819C19.4857 20.5473 19.1604 20.1937 18.8458 19.8517L18.8349 19.8398C18.6675 19.6581 18.4946 19.4701 18.3229 19.2903C18.172 19.1325 18.0329 19.0057 17.8977 18.903C17.8195 18.8433 17.7621 18.8232 17.738 18.8187C17.7261 18.8315 17.7028 18.8621 17.6787 18.923C17.5632 19.2146 17.4284 20.1054 17.4013 20.3698C17.3446 21.1201 16.8218 21.6139 16.0356 21.657C15.7857 21.6705 15.5408 21.6774 15.307 21.6774C13.7542 21.6774 12.4333 21.3742 11.2688 20.7503C10.1129 20.1312 9.08414 19.2341 8.12364 18.0077C6.96744 16.532 5.93083 14.8306 4.76267 12.4912C4.71304 12.3919 3.81805 10.4873 3.71868 10.238C3.70385 10.2009 3.69172 10.1629 3.68223 10.124C3.55755 9.61195 3.71446 9.14169 4.09185 8.89683C4.20698 8.82218 4.33835 8.77642 4.47493 8.76359C4.52719 8.75855 4.68615 8.74361 5.38527 8.74361C6.3664 8.74361 7.7773 8.77296 7.86091 8.77584C7.86624 8.77607 7.87164 8.77625 7.87697 8.7766C8.6 8.81574 9.10647 9.18036 9.38226 9.86044C10.0198 11.4347 10.7755 12.7578 11.6925 13.9058C11.7619 13.9932 11.851 14.0808 11.9508 14.1603C12.0279 13.8659 12.0921 13.4253 12.0962 13.2008C12.1127 12.3597 12.0939 11.8093 12.0484 10.9636C12.0224 10.4863 11.8614 10.3642 11.5329 10.2844C11.2398 10.2132 11.0063 9.99209 10.9192 9.70341C10.8321 9.41467 10.9043 9.10137 11.109 8.8799C11.552 8.40079 12.1296 8.30727 12.6878 8.27745C12.9652 8.26245 13.2669 8.25513 13.6096 8.25513C13.924 8.25513 14.2387 8.26099 14.5429 8.26679C14.7521 8.27071 14.9613 8.27464 15.1704 8.27675C15.5772 8.28038 15.9367 8.31741 16.2683 8.38977C16.8716 8.52108 17.2803 8.96702 17.3889 9.61324C17.4324 9.87022 17.4516 10.1229 17.446 10.3639C17.4373 10.7445 17.4247 11.1305 17.4123 11.5039L17.4116 11.5232C17.3936 12.0661 17.3753 12.6202 17.369 13.1623C17.3649 13.5084 17.3916 13.824 17.4484 14.1016C17.7866 13.7422 18.123 13.3163 18.5288 12.7344C19.0857 11.9356 19.5705 10.994 20.0548 9.77138C20.3545 9.01665 20.709 8.77408 21.5137 8.77238C22.6358 8.76957 23.7583 8.76881 24.8806 8.77238C25.1689 8.77355 25.4133 8.80736 25.6284 8.87568C26.177 9.05058 26.4569 9.55693 26.3257 10.1362C26.1321 10.9958 25.6695 11.6981 25.2512 12.289C24.7964 12.9308 24.3211 13.5707 23.8615 14.1897C23.617 14.5187 23.3768 14.8422 23.1384 15.167C23.0722 15.2575 23.006 15.3627 22.9306 15.4979C22.765 15.7976 22.7864 15.8196 22.9902 16.0301C23.2361 16.2836 23.4952 16.5366 23.7459 16.7811C24.1166 17.143 24.4967 17.5141 24.8537 17.9045C25.3197 18.415 25.7302 18.9492 26.0745 19.4928C26.3793 19.9741 26.4409 20.495 26.2435 20.9221C26.1299 21.1682 25.827 21.5975 25.076 21.7043C24.9632 21.7198 24.73 21.7407 23.9989 21.7407ZM17.7288 17.1156C18.1419 17.1156 18.5568 17.2654 18.9287 17.5489C19.1351 17.7058 19.3397 17.891 19.5533 18.1146C19.736 18.3057 19.9144 18.4995 20.0869 18.6871L20.0981 18.6993C20.3957 19.0229 20.7031 19.357 21.0133 19.6557C21.2574 19.8905 21.5497 20.0055 21.9068 20.0071C21.9276 20.0071 22.0041 20.0088 22.1213 20.0115C22.4844 20.0198 23.3212 20.0388 23.9987 20.0388C24.1559 20.0388 24.2853 20.0377 24.3911 20.0362C24.1554 19.7018 23.8893 19.3721 23.5971 19.052C23.2734 18.6979 22.911 18.3441 22.5604 18.0019C22.2983 17.7463 22.0307 17.4851 21.7681 17.2142C21.0265 16.4486 20.9202 15.617 21.4428 14.6715C21.5547 14.4707 21.657 14.3091 21.766 14.1603C22.0067 13.8323 22.2489 13.5062 22.4912 13.1799C22.9494 12.5632 23.4189 11.931 23.8625 11.305C24.044 11.0486 24.2357 10.7678 24.391 10.4727C23.4635 10.4707 22.5352 10.4716 21.6069 10.4737C21.0828 11.7853 20.5472 12.8148 19.9248 13.7075C19.4414 14.4008 19.0369 14.9061 18.613 15.3462C18.1579 15.8182 17.6845 15.9172 17.3674 15.9172C16.6012 15.9172 15.9843 15.3659 15.7958 14.513C15.7046 14.0972 15.6615 13.6364 15.6673 13.1422C15.6737 12.582 15.6924 12.0187 15.7104 11.4738L15.7112 11.4476C15.7235 11.0786 15.7361 10.6971 15.7445 10.3245C15.7467 10.228 15.7415 10.1261 15.7286 10.02C15.5565 9.99397 15.367 9.98032 15.1538 9.97844C14.9389 9.97622 14.7248 9.97229 14.5108 9.96825C14.1953 9.96239 13.8664 9.956 13.5524 9.957C13.6633 10.2283 13.7293 10.5344 13.7477 10.8717C13.7955 11.7601 13.8152 12.3399 13.7977 13.2329C13.79 13.6604 13.6716 14.4267 13.5078 14.884C13.2736 15.5439 12.7156 15.9556 12.0525 15.9556C11.724 15.9556 11.395 15.849 11.101 15.6474C10.8164 15.4524 10.5605 15.2168 10.3615 14.9664C9.3416 13.6896 8.50496 12.228 7.80496 10.4997C7.80144 10.4911 7.79816 10.4835 7.79517 10.4767L7.79306 10.4765C7.66346 10.4729 6.56421 10.4509 5.68263 10.4464C5.9419 11.0044 6.24271 11.6452 6.2856 11.732C7.40008 13.9639 8.38022 15.576 9.46318 16.9583C10.2751 17.9951 11.1285 18.7447 12.0722 19.2501C12.9835 19.7383 14.0415 19.9756 15.3068 19.9756C15.4458 19.9756 15.5899 19.9728 15.7374 19.9671C15.7931 19.5485 15.9169 18.7482 16.0964 18.2954C16.3904 17.5563 17.0005 17.1156 17.7288 17.1156Z" fill="#102EDB"/>
</svg>
